# Tiled2Unity generated file. Do not modify by hand.
# Wavefront file for 'untitled_mesh_0007.obj'

# Vertices (Count = 152)
v -2560 -384 -0.075
v -2592 -384 -0.075
v -2592 -352 -0.075
v -2560 -352 -0.075
v -2528 -448 -0.0875
v -2560 -448 -0.0875
v -2560 -416 -0.0875
v -2528 -416 -0.0875
v -2496 -512 -0.1
v -2528 -512 -0.1
v -2528 -480 -0.1
v -2496 -480 -0.1
v -2464 -544 -0.10625
v -2496 -544 -0.10625
v -2496 -512 -0.10625
v -2464 -512 -0.10625
v -2848 -544 -0.10625
v -2880 -544 -0.10625
v -2880 -512 -0.10625
v -2848 -512 -0.10625
v -5536 -544 -0.10625
v -5568 -544 -0.10625
v -5568 -512 -0.10625
v -5536 -512 -0.10625
v -2432 -576 -0.1125
v -2464 -576 -0.1125
v -2464 -544 -0.1125
v -2432 -544 -0.1125
v -4352 -576 -0.1125
v -4384 -576 -0.1125
v -4384 -544 -0.1125
v -4352 -544 -0.1125
v -4768 -576 -0.1125
v -4800 -576 -0.1125
v -4800 -544 -0.1125
v -4768 -544 -0.1125
v -5504 -576 -0.1125
v -5536 -576 -0.1125
v -5536 -544 -0.1125
v -5504 -544 -0.1125
v -2400 -608 -0.11875
v -2432 -608 -0.11875
v -2432 -576 -0.11875
v -2400 -576 -0.11875
v -2816 -608 -0.11875
v -2848 -608 -0.11875
v -2848 -576 -0.11875
v -2816 -576 -0.11875
v -3680 -608 -0.11875
v -3712 -608 -0.11875
v -3712 -576 -0.11875
v -3680 -576 -0.11875
v -4736 -608 -0.11875
v -4768 -608 -0.11875
v -4768 -576 -0.11875
v -4736 -576 -0.11875
v -2368 -640 -0.125
v -2400 -640 -0.125
v -2400 -608 -0.125
v -2368 -608 -0.125
v -3232 -640 -0.125
v -3264 -640 -0.125
v -3264 -608 -0.125
v -3232 -608 -0.125
v -3648 -640 -0.125
v -3680 -640 -0.125
v -3680 -608 -0.125
v -3648 -608 -0.125
v -4320 -640 -0.125
v -4352 -640 -0.125
v -4352 -608 -0.125
v -4320 -608 -0.125
v -3168 -672 -0.13125
v -3200 -672 -0.13125
v -3200 -640 -0.13125
v -3168 -640 -0.13125
v -3616 -672 -0.13125
v -3648 -672 -0.13125
v -3648 -640 -0.13125
v -3616 -640 -0.13125
v -4224 -672 -0.13125
v -4256 -672 -0.13125
v -4256 -640 -0.13125
v -4224 -640 -0.13125
v -5472 -672 -0.13125
v -5504 -672 -0.13125
v -5504 -640 -0.13125
v -5472 -640 -0.13125
v -2272 -704 -0.1375
v -2304 -704 -0.1375
v -2304 -672 -0.1375
v -2272 -672 -0.1375
v -3520 -704 -0.1375
v -3552 -704 -0.1375
v -3552 -672 -0.1375
v -3520 -672 -0.1375
v -5344 -704 -0.1375
v -5376 -704 -0.1375
v -5376 -672 -0.1375
v -5344 -672 -0.1375
v -2240 -736 -0.14375
v -2272 -736 -0.14375
v -2272 -704 -0.14375
v -2240 -704 -0.14375
v -4192 -736 -0.14375
v -4224 -736 -0.14375
v -4224 -704 -0.14375
v -4192 -704 -0.14375
v -4960 -736 -0.14375
v -4992 -736 -0.14375
v -4992 -704 -0.14375
v -4960 -704 -0.14375
v -5152 -736 -0.14375
v -5184 -736 -0.14375
v -5184 -704 -0.14375
v -5152 -704 -0.14375
v -5312 -736 -0.14375
v -5344 -736 -0.14375
v -5344 -704 -0.14375
v -5312 -704 -0.14375
v -6336 -736 -0.14375
v -6368 -736 -0.14375
v -6368 -704 -0.14375
v -6336 -704 -0.14375
v -2208 -800 -0.15625
v -2240 -800 -0.15625
v -2240 -768 -0.15625
v -2208 -768 -0.15625
v -6272 -864 -0.16875
v -6304 -864 -0.16875
v -6304 -832 -0.16875
v -6272 -832 -0.16875
v -6496 -864 -0.16875
v -6528 -864 -0.16875
v -6528 -832 -0.16875
v -6496 -832 -0.16875
v -2176 -896 -0.175
v -2208 -896 -0.175
v -2208 -864 -0.175
v -2176 -864 -0.175
v -2144 -928 -0.18125
v -2176 -928 -0.18125
v -2176 -896 -0.18125
v -2144 -896 -0.18125
v -6592 -960 -0.1875
v -6624 -960 -0.1875
v -6624 -928 -0.1875
v -6592 -928 -0.1875
v -2112 -1024 -0.2
v -2144 -1024 -0.2
v -2144 -992 -0.2
v -2112 -992 -0.2

# Texture cooridinates (Count = 4)
vt 0 0
vt 1 0
vt 1 1
vt 0 1

# Normal
vn 0 0 -1

# Mesh description
g untitled_mesh_0007

# Faces
f 1/1/1 2/2/1 3/3/1 4/4/1
f 5/1/1 6/2/1 7/3/1 8/4/1
f 9/1/1 10/2/1 11/3/1 12/4/1
f 13/1/1 14/2/1 15/3/1 16/4/1
f 17/1/1 18/2/1 19/3/1 20/4/1
f 21/1/1 22/2/1 23/3/1 24/4/1
f 25/1/1 26/2/1 27/3/1 28/4/1
f 29/1/1 30/2/1 31/3/1 32/4/1
f 33/1/1 34/2/1 35/3/1 36/4/1
f 37/1/1 38/2/1 39/3/1 40/4/1
f 41/1/1 42/2/1 43/3/1 44/4/1
f 45/1/1 46/2/1 47/3/1 48/4/1
f 49/1/1 50/2/1 51/3/1 52/4/1
f 53/1/1 54/2/1 55/3/1 56/4/1
f 57/1/1 58/2/1 59/3/1 60/4/1
f 61/1/1 62/2/1 63/3/1 64/4/1
f 65/1/1 66/2/1 67/3/1 68/4/1
f 69/1/1 70/2/1 71/3/1 72/4/1
f 73/1/1 74/2/1 75/3/1 76/4/1
f 77/1/1 78/2/1 79/3/1 80/4/1
f 81/1/1 82/2/1 83/3/1 84/4/1
f 85/1/1 86/2/1 87/3/1 88/4/1
f 89/1/1 90/2/1 91/3/1 92/4/1
f 93/1/1 94/2/1 95/3/1 96/4/1
f 97/1/1 98/2/1 99/3/1 100/4/1
f 101/1/1 102/2/1 103/3/1 104/4/1
f 105/1/1 106/2/1 107/3/1 108/4/1
f 109/1/1 110/2/1 111/3/1 112/4/1
f 113/1/1 114/2/1 115/3/1 116/4/1
f 117/1/1 118/2/1 119/3/1 120/4/1
f 121/1/1 122/2/1 123/3/1 124/4/1
f 125/1/1 126/2/1 127/3/1 128/4/1
f 129/1/1 130/2/1 131/3/1 132/4/1
f 133/1/1 134/2/1 135/3/1 136/4/1
f 137/1/1 138/2/1 139/3/1 140/4/1
f 141/1/1 142/2/1 143/3/1 144/4/1
f 145/1/1 146/2/1 147/3/1 148/4/1
f 149/1/1 150/2/1 151/3/1 152/4/1

