# Tiled2Unity generated file. Do not modify by hand.
# Wavefront file for 'untitled_mesh_0057.obj'

# Vertices (Count = 28)
v -2656 -576 -0.1125
v -2689 -576 -0.1125
v -2689 -544 -0.1125
v -2656 -544 -0.1125
v -2656 -608 -0.11875
v -2689 -608 -0.11875
v -2689 -576 -0.11875
v -2656 -576 -0.11875
v -5696 -608 -0.11875
v -5729 -608 -0.11875
v -5729 -576 -0.11875
v -5696 -576 -0.11875
v -2912 -672 -0.13125
v -2945 -672 -0.13125
v -2945 -640 -0.13125
v -2912 -640 -0.13125
v -5664 -672 -0.13125
v -5697 -672 -0.13125
v -5697 -640 -0.13125
v -5664 -640 -0.13125
v -5664 -704 -0.1375
v -5697 -704 -0.1375
v -5697 -672 -0.1375
v -5664 -672 -0.1375
v -5664 -736 -0.14375
v -5697 -736 -0.14375
v -5697 -704 -0.14375
v -5664 -704 -0.14375

# Texture cooridinates (Count = 4)
vt 0 0
vt 1 0
vt 1 1
vt 0 1

# Normal
vn 0 0 -1

# Mesh description
g untitled_mesh_0057

# Faces
f 1/1/1 2/2/1 3/3/1 4/4/1
f 5/1/1 6/2/1 7/3/1 8/4/1
f 9/1/1 10/2/1 11/3/1 12/4/1
f 13/1/1 14/2/1 15/3/1 16/4/1
f 17/1/1 18/2/1 19/3/1 20/4/1
f 21/1/1 22/2/1 23/3/1 24/4/1
f 25/1/1 26/2/1 27/3/1 28/4/1

