# Tiled2Unity generated file. Do not modify by hand.
# Wavefront file for 'untitled_mesh_0009.obj'

# Vertices (Count = 184)
v -2656 -384 -0.075
v -2688 -384 -0.075
v -2688 -352 -0.075
v -2656 -352 -0.075
v -2656 -416 -0.08125
v -2688 -416 -0.08125
v -2688 -384 -0.08125
v -2656 -384 -0.08125
v -2688 -480 -0.09375
v -2720 -480 -0.09375
v -2720 -448 -0.09375
v -2688 -448 -0.09375
v -2688 -512 -0.1
v -2720 -512 -0.1
v -2720 -480 -0.1
v -2688 -480 -0.1
v -2688 -544 -0.10625
v -2720 -544 -0.10625
v -2720 -512 -0.10625
v -2688 -512 -0.10625
v -2688 -576 -0.1125
v -2720 -576 -0.1125
v -2720 -544 -0.1125
v -2688 -544 -0.1125
v -4448 -576 -0.1125
v -4480 -576 -0.1125
v -4480 -544 -0.1125
v -4448 -544 -0.1125
v -4864 -576 -0.1125
v -4896 -576 -0.1125
v -4896 -544 -0.1125
v -4864 -544 -0.1125
v -4448 -608 -0.11875
v -4480 -608 -0.11875
v -4480 -576 -0.11875
v -4448 -576 -0.11875
v -4864 -608 -0.11875
v -4896 -608 -0.11875
v -4896 -576 -0.11875
v -4864 -576 -0.11875
v -4448 -640 -0.125
v -4480 -640 -0.125
v -4480 -608 -0.125
v -4448 -608 -0.125
v -4864 -640 -0.125
v -4896 -640 -0.125
v -4896 -608 -0.125
v -4864 -608 -0.125
v -3040 -704 -0.1375
v -3072 -704 -0.1375
v -3072 -672 -0.1375
v -3040 -672 -0.1375
v -3040 -736 -0.14375
v -3072 -736 -0.14375
v -3072 -704 -0.14375
v -3040 -704 -0.14375
v -3040 -768 -0.15
v -3072 -768 -0.15
v -3072 -736 -0.15
v -3040 -736 -0.15
v -6560 -768 -0.15
v -6592 -768 -0.15
v -6592 -736 -0.15
v -6560 -736 -0.15
v -3040 -800 -0.15625
v -3072 -800 -0.15625
v -3072 -768 -0.15625
v -3040 -768 -0.15625
v -6560 -800 -0.15625
v -6592 -800 -0.15625
v -6592 -768 -0.15625
v -6560 -768 -0.15625
v -6560 -832 -0.1625
v -6592 -832 -0.1625
v -6592 -800 -0.1625
v -6560 -800 -0.1625
v -7328 -1568 -0.30625
v -7360 -1568 -0.30625
v -7360 -1536 -0.30625
v -7328 -1536 -0.30625
v -7328 -1600 -0.3125
v -7360 -1600 -0.3125
v -7360 -1568 -0.3125
v -7328 -1568 -0.3125
v -7328 -1632 -0.31875
v -7360 -1632 -0.31875
v -7360 -1600 -0.31875
v -7328 -1600 -0.31875
v -7328 -1664 -0.325
v -7360 -1664 -0.325
v -7360 -1632 -0.325
v -7328 -1632 -0.325
v -7552 -1920 -0.375
v -7584 -1920 -0.375
v -7584 -1888 -0.375
v -7552 -1888 -0.375
v -7552 -1952 -0.38125
v -7584 -1952 -0.38125
v -7584 -1920 -0.38125
v -7552 -1920 -0.38125
v -7552 -1984 -0.3875
v -7584 -1984 -0.3875
v -7584 -1952 -0.3875
v -7552 -1952 -0.3875
v -7552 -2016 -0.39375
v -7584 -2016 -0.39375
v -7584 -1984 -0.39375
v -7552 -1984 -0.39375
v -8000 -2656 -0.51875
v -8032 -2656 -0.51875
v -8032 -2624 -0.51875
v -8000 -2624 -0.51875
v -8000 -2688 -0.525
v -8032 -2688 -0.525
v -8032 -2656 -0.525
v -8000 -2656 -0.525
v -8000 -2720 -0.53125
v -8032 -2720 -0.53125
v -8032 -2688 -0.53125
v -8000 -2688 -0.53125
v -8000 -2752 -0.5375
v -8032 -2752 -0.5375
v -8032 -2720 -0.5375
v -8000 -2720 -0.5375
v -8000 -2784 -0.54375
v -8032 -2784 -0.54375
v -8032 -2752 -0.54375
v -8000 -2752 -0.54375
v -8000 -2816 -0.55
v -8032 -2816 -0.55
v -8032 -2784 -0.55
v -8000 -2784 -0.55
v -8096 -2944 -0.575
v -8128 -2944 -0.575
v -8128 -2912 -0.575
v -8096 -2912 -0.575
v -8128 -3008 -0.5875
v -8160 -3008 -0.5875
v -8160 -2976 -0.5875
v -8128 -2976 -0.5875
v -8192 -3104 -0.60625
v -8224 -3104 -0.60625
v -8224 -3072 -0.60625
v -8192 -3072 -0.60625
v -8192 -3136 -0.6125
v -8224 -3136 -0.6125
v -8224 -3104 -0.6125
v -8192 -3104 -0.6125
v -8288 -3264 -0.6375
v -8320 -3264 -0.6375
v -8320 -3232 -0.6375
v -8288 -3232 -0.6375
v -8352 -3360 -0.65625
v -8384 -3360 -0.65625
v -8384 -3328 -0.65625
v -8352 -3328 -0.65625
v -8384 -3424 -0.66875
v -8416 -3424 -0.66875
v -8416 -3392 -0.66875
v -8384 -3392 -0.66875
v -8448 -3520 -0.6875
v -8480 -3520 -0.6875
v -8480 -3488 -0.6875
v -8448 -3488 -0.6875
v -8576 -3648 -0.7125
v -8608 -3648 -0.7125
v -8608 -3616 -0.7125
v -8576 -3616 -0.7125
v -8640 -3744 -0.73125
v -8672 -3744 -0.73125
v -8672 -3712 -0.73125
v -8640 -3712 -0.73125
v -8704 -3840 -0.75
v -8736 -3840 -0.75
v -8736 -3808 -0.75
v -8704 -3808 -0.75
v -8736 -3904 -0.7625
v -8768 -3904 -0.7625
v -8768 -3872 -0.7625
v -8736 -3872 -0.7625
v -8768 -3968 -0.775
v -8800 -3968 -0.775
v -8800 -3936 -0.775
v -8768 -3936 -0.775

# Texture cooridinates (Count = 4)
vt 0 0
vt 1 0
vt 1 1
vt 0 1

# Normal
vn 0 0 -1

# Mesh description
g untitled_mesh_0009

# Faces
f 1/1/1 2/2/1 3/3/1 4/4/1
f 5/1/1 6/2/1 7/3/1 8/4/1
f 9/1/1 10/2/1 11/3/1 12/4/1
f 13/1/1 14/2/1 15/3/1 16/4/1
f 17/1/1 18/2/1 19/3/1 20/4/1
f 21/1/1 22/2/1 23/3/1 24/4/1
f 25/1/1 26/2/1 27/3/1 28/4/1
f 29/1/1 30/2/1 31/3/1 32/4/1
f 33/1/1 34/2/1 35/3/1 36/4/1
f 37/1/1 38/2/1 39/3/1 40/4/1
f 41/1/1 42/2/1 43/3/1 44/4/1
f 45/1/1 46/2/1 47/3/1 48/4/1
f 49/1/1 50/2/1 51/3/1 52/4/1
f 53/1/1 54/2/1 55/3/1 56/4/1
f 57/1/1 58/2/1 59/3/1 60/4/1
f 61/1/1 62/2/1 63/3/1 64/4/1
f 65/1/1 66/2/1 67/3/1 68/4/1
f 69/1/1 70/2/1 71/3/1 72/4/1
f 73/1/1 74/2/1 75/3/1 76/4/1
f 77/1/1 78/2/1 79/3/1 80/4/1
f 81/1/1 82/2/1 83/3/1 84/4/1
f 85/1/1 86/2/1 87/3/1 88/4/1
f 89/1/1 90/2/1 91/3/1 92/4/1
f 93/1/1 94/2/1 95/3/1 96/4/1
f 97/1/1 98/2/1 99/3/1 100/4/1
f 101/1/1 102/2/1 103/3/1 104/4/1
f 105/1/1 106/2/1 107/3/1 108/4/1
f 109/1/1 110/2/1 111/3/1 112/4/1
f 113/1/1 114/2/1 115/3/1 116/4/1
f 117/1/1 118/2/1 119/3/1 120/4/1
f 121/1/1 122/2/1 123/3/1 124/4/1
f 125/1/1 126/2/1 127/3/1 128/4/1
f 129/1/1 130/2/1 131/3/1 132/4/1
f 133/1/1 134/2/1 135/3/1 136/4/1
f 137/1/1 138/2/1 139/3/1 140/4/1
f 141/1/1 142/2/1 143/3/1 144/4/1
f 145/1/1 146/2/1 147/3/1 148/4/1
f 149/1/1 150/2/1 151/3/1 152/4/1
f 153/1/1 154/2/1 155/3/1 156/4/1
f 157/1/1 158/2/1 159/3/1 160/4/1
f 161/1/1 162/2/1 163/3/1 164/4/1
f 165/1/1 166/2/1 167/3/1 168/4/1
f 169/1/1 170/2/1 171/3/1 172/4/1
f 173/1/1 174/2/1 175/3/1 176/4/1
f 177/1/1 178/2/1 179/3/1 180/4/1
f 181/1/1 182/2/1 183/3/1 184/4/1

