# Tiled2Unity generated file. Do not modify by hand.
# Wavefront file for 'untitled_mesh_0027.obj'

# Vertices (Count = 228)
v -5568 -544 -0.10625
v -5600 -544 -0.10625
v -5600 -512 -0.10625
v -5568 -512 -0.10625
v -5536 -576 -0.1125
v -5568 -576 -0.1125
v -5568 -544 -0.1125
v -5536 -544 -0.1125
v -3328 -608 -0.11875
v -3360 -608 -0.11875
v -3360 -576 -0.11875
v -3328 -576 -0.11875
v -3392 -608 -0.11875
v -3424 -608 -0.11875
v -3424 -576 -0.11875
v -3392 -576 -0.11875
v -3424 -608 -0.11875
v -3456 -608 -0.11875
v -3456 -576 -0.11875
v -3424 -576 -0.11875
v -5504 -608 -0.11875
v -5536 -608 -0.11875
v -5536 -576 -0.11875
v -5504 -576 -0.11875
v -5536 -608 -0.11875
v -5568 -608 -0.11875
v -5568 -576 -0.11875
v -5536 -576 -0.11875
v -3264 -640 -0.125
v -3296 -640 -0.125
v -3296 -608 -0.125
v -3264 -608 -0.125
v -3360 -640 -0.125
v -3392 -640 -0.125
v -3392 -608 -0.125
v -3360 -608 -0.125
v -3392 -640 -0.125
v -3424 -640 -0.125
v -3424 -608 -0.125
v -3392 -608 -0.125
v -3424 -640 -0.125
v -3456 -640 -0.125
v -3456 -608 -0.125
v -3424 -608 -0.125
v -3456 -640 -0.125
v -3488 -640 -0.125
v -3488 -608 -0.125
v -3456 -608 -0.125
v -3488 -640 -0.125
v -3520 -640 -0.125
v -3520 -608 -0.125
v -3488 -608 -0.125
v -3520 -640 -0.125
v -3552 -640 -0.125
v -3552 -608 -0.125
v -3520 -608 -0.125
v -3552 -640 -0.125
v -3584 -640 -0.125
v -3584 -608 -0.125
v -3552 -608 -0.125
v -3744 -640 -0.125
v -3776 -640 -0.125
v -3776 -608 -0.125
v -3744 -608 -0.125
v -4032 -640 -0.125
v -4064 -640 -0.125
v -4064 -608 -0.125
v -4032 -608 -0.125
v -4064 -640 -0.125
v -4096 -640 -0.125
v -4096 -608 -0.125
v -4064 -608 -0.125
v -4096 -640 -0.125
v -4128 -640 -0.125
v -4128 -608 -0.125
v -4096 -608 -0.125
v -4288 -640 -0.125
v -4320 -640 -0.125
v -4320 -608 -0.125
v -4288 -608 -0.125
v -4320 -640 -0.125
v -4352 -640 -0.125
v -4352 -608 -0.125
v -4320 -608 -0.125
v -5376 -640 -0.125
v -5408 -640 -0.125
v -5408 -608 -0.125
v -5376 -608 -0.125
v -5408 -640 -0.125
v -5440 -640 -0.125
v -5440 -608 -0.125
v -5408 -608 -0.125
v -5440 -640 -0.125
v -5472 -640 -0.125
v -5472 -608 -0.125
v -5440 -608 -0.125
v -5472 -640 -0.125
v -5504 -640 -0.125
v -5504 -608 -0.125
v -5472 -608 -0.125
v -5504 -640 -0.125
v -5536 -640 -0.125
v -5536 -608 -0.125
v -5504 -608 -0.125
v -5536 -640 -0.125
v -5568 -640 -0.125
v -5568 -608 -0.125
v -5536 -608 -0.125
v -3456 -672 -0.13125
v -3488 -672 -0.13125
v -3488 -640 -0.13125
v -3456 -640 -0.13125
v -3488 -672 -0.13125
v -3520 -672 -0.13125
v -3520 -640 -0.13125
v -3488 -640 -0.13125
v -3520 -672 -0.13125
v -3552 -672 -0.13125
v -3552 -640 -0.13125
v -3520 -640 -0.13125
v -3552 -672 -0.13125
v -3584 -672 -0.13125
v -3584 -640 -0.13125
v -3552 -640 -0.13125
v -3584 -672 -0.13125
v -3616 -672 -0.13125
v -3616 -640 -0.13125
v -3584 -640 -0.13125
v -3616 -672 -0.13125
v -3648 -672 -0.13125
v -3648 -640 -0.13125
v -3616 -640 -0.13125
v -3648 -672 -0.13125
v -3680 -672 -0.13125
v -3680 -640 -0.13125
v -3648 -640 -0.13125
v -3680 -672 -0.13125
v -3712 -672 -0.13125
v -3712 -640 -0.13125
v -3680 -640 -0.13125
v -4064 -672 -0.13125
v -4096 -672 -0.13125
v -4096 -640 -0.13125
v -4064 -640 -0.13125
v -4096 -672 -0.13125
v -4128 -672 -0.13125
v -4128 -640 -0.13125
v -4096 -640 -0.13125
v -4128 -672 -0.13125
v -4160 -672 -0.13125
v -4160 -640 -0.13125
v -4128 -640 -0.13125
v -4256 -672 -0.13125
v -4288 -672 -0.13125
v -4288 -640 -0.13125
v -4256 -640 -0.13125
v -4288 -672 -0.13125
v -4320 -672 -0.13125
v -4320 -640 -0.13125
v -4288 -640 -0.13125
v -5344 -672 -0.13125
v -5376 -672 -0.13125
v -5376 -640 -0.13125
v -5344 -640 -0.13125
v -5376 -672 -0.13125
v -5408 -672 -0.13125
v -5408 -640 -0.13125
v -5376 -640 -0.13125
v -5408 -672 -0.13125
v -5440 -672 -0.13125
v -5440 -640 -0.13125
v -5408 -640 -0.13125
v -5440 -672 -0.13125
v -5472 -672 -0.13125
v -5472 -640 -0.13125
v -5440 -640 -0.13125
v -5536 -672 -0.13125
v -5568 -672 -0.13125
v -5568 -640 -0.13125
v -5536 -640 -0.13125
v -5568 -672 -0.13125
v -5600 -672 -0.13125
v -5600 -640 -0.13125
v -5568 -640 -0.13125
v -4096 -704 -0.1375
v -4128 -704 -0.1375
v -4128 -672 -0.1375
v -4096 -672 -0.1375
v -4128 -704 -0.1375
v -4160 -704 -0.1375
v -4160 -672 -0.1375
v -4128 -672 -0.1375
v -4160 -704 -0.1375
v -4192 -704 -0.1375
v -4192 -672 -0.1375
v -4160 -672 -0.1375
v -4192 -704 -0.1375
v -4224 -704 -0.1375
v -4224 -672 -0.1375
v -4192 -672 -0.1375
v -4224 -704 -0.1375
v -4256 -704 -0.1375
v -4256 -672 -0.1375
v -4224 -672 -0.1375
v -4256 -704 -0.1375
v -4288 -704 -0.1375
v -4288 -672 -0.1375
v -4256 -672 -0.1375
v -4288 -704 -0.1375
v -4320 -704 -0.1375
v -4320 -672 -0.1375
v -4288 -672 -0.1375
v -5312 -704 -0.1375
v -5344 -704 -0.1375
v -5344 -672 -0.1375
v -5312 -672 -0.1375
v -5344 -704 -0.1375
v -5376 -704 -0.1375
v -5376 -672 -0.1375
v -5344 -672 -0.1375
v -5376 -704 -0.1375
v -5408 -704 -0.1375
v -5408 -672 -0.1375
v -5376 -672 -0.1375
v -5408 -704 -0.1375
v -5440 -704 -0.1375
v -5440 -672 -0.1375
v -5408 -672 -0.1375

# Texture cooridinates (Count = 4)
vt 0 0
vt 1 0
vt 1 1
vt 0 1

# Normal
vn 0 0 -1

# Mesh description
g untitled_mesh_0027

# Faces
f 1/1/1 2/2/1 3/3/1 4/4/1
f 5/1/1 6/2/1 7/3/1 8/4/1
f 9/1/1 10/2/1 11/3/1 12/4/1
f 13/1/1 14/2/1 15/3/1 16/4/1
f 17/1/1 18/2/1 19/3/1 20/4/1
f 21/1/1 22/2/1 23/3/1 24/4/1
f 25/1/1 26/2/1 27/3/1 28/4/1
f 29/1/1 30/2/1 31/3/1 32/4/1
f 33/1/1 34/2/1 35/3/1 36/4/1
f 37/1/1 38/2/1 39/3/1 40/4/1
f 41/1/1 42/2/1 43/3/1 44/4/1
f 45/1/1 46/2/1 47/3/1 48/4/1
f 49/1/1 50/2/1 51/3/1 52/4/1
f 53/1/1 54/2/1 55/3/1 56/4/1
f 57/1/1 58/2/1 59/3/1 60/4/1
f 61/1/1 62/2/1 63/3/1 64/4/1
f 65/1/1 66/2/1 67/3/1 68/4/1
f 69/1/1 70/2/1 71/3/1 72/4/1
f 73/1/1 74/2/1 75/3/1 76/4/1
f 77/1/1 78/2/1 79/3/1 80/4/1
f 81/1/1 82/2/1 83/3/1 84/4/1
f 85/1/1 86/2/1 87/3/1 88/4/1
f 89/1/1 90/2/1 91/3/1 92/4/1
f 93/1/1 94/2/1 95/3/1 96/4/1
f 97/1/1 98/2/1 99/3/1 100/4/1
f 101/1/1 102/2/1 103/3/1 104/4/1
f 105/1/1 106/2/1 107/3/1 108/4/1
f 109/1/1 110/2/1 111/3/1 112/4/1
f 113/1/1 114/2/1 115/3/1 116/4/1
f 117/1/1 118/2/1 119/3/1 120/4/1
f 121/1/1 122/2/1 123/3/1 124/4/1
f 125/1/1 126/2/1 127/3/1 128/4/1
f 129/1/1 130/2/1 131/3/1 132/4/1
f 133/1/1 134/2/1 135/3/1 136/4/1
f 137/1/1 138/2/1 139/3/1 140/4/1
f 141/1/1 142/2/1 143/3/1 144/4/1
f 145/1/1 146/2/1 147/3/1 148/4/1
f 149/1/1 150/2/1 151/3/1 152/4/1
f 153/1/1 154/2/1 155/3/1 156/4/1
f 157/1/1 158/2/1 159/3/1 160/4/1
f 161/1/1 162/2/1 163/3/1 164/4/1
f 165/1/1 166/2/1 167/3/1 168/4/1
f 169/1/1 170/2/1 171/3/1 172/4/1
f 173/1/1 174/2/1 175/3/1 176/4/1
f 177/1/1 178/2/1 179/3/1 180/4/1
f 181/1/1 182/2/1 183/3/1 184/4/1
f 185/1/1 186/2/1 187/3/1 188/4/1
f 189/1/1 190/2/1 191/3/1 192/4/1
f 193/1/1 194/2/1 195/3/1 196/4/1
f 197/1/1 198/2/1 199/3/1 200/4/1
f 201/1/1 202/2/1 203/3/1 204/4/1
f 205/1/1 206/2/1 207/3/1 208/4/1
f 209/1/1 210/2/1 211/3/1 212/4/1
f 213/1/1 214/2/1 215/3/1 216/4/1
f 217/1/1 218/2/1 219/3/1 220/4/1
f 221/1/1 222/2/1 223/3/1 224/4/1
f 225/1/1 226/2/1 227/3/1 228/4/1

