# Tiled2Unity generated file. Do not modify by hand.
# Wavefront file for 'untitled_mesh_0043.obj'

# Vertices (Count = 312)
v -5568 -384 -0.075
v -5600 -384 -0.075
v -5600 -352 -0.075
v -5568 -352 -0.075
v -5600 -416 -0.08125
v -5632 -416 -0.08125
v -5632 -384 -0.08125
v -5600 -384 -0.08125
v -2656 -448 -0.0875
v -2688 -448 -0.0875
v -2688 -416 -0.0875
v -2656 -416 -0.0875
v -3712 -448 -0.0875
v -3744 -448 -0.0875
v -3744 -416 -0.0875
v -3712 -416 -0.0875
v -5632 -448 -0.0875
v -5664 -448 -0.0875
v -5664 -416 -0.0875
v -5632 -416 -0.0875
v -3744 -480 -0.09375
v -3776 -480 -0.09375
v -3776 -448 -0.09375
v -3744 -448 -0.09375
v -5664 -480 -0.09375
v -5696 -480 -0.09375
v -5696 -448 -0.09375
v -5664 -448 -0.09375
v -3776 -512 -0.1
v -3808 -512 -0.1
v -3808 -480 -0.1
v -3776 -480 -0.1
v -5696 -512 -0.1
v -5728 -512 -0.1
v -5728 -480 -0.1
v -5696 -480 -0.1
v -2880 -544 -0.10625
v -2912 -544 -0.10625
v -2912 -512 -0.10625
v -2880 -512 -0.10625
v -3808 -544 -0.10625
v -3840 -544 -0.10625
v -3840 -512 -0.10625
v -3808 -512 -0.10625
v -5728 -544 -0.10625
v -5760 -544 -0.10625
v -5760 -512 -0.10625
v -5728 -512 -0.10625
v -2912 -576 -0.1125
v -2944 -576 -0.1125
v -2944 -544 -0.1125
v -2912 -544 -0.1125
v -3840 -576 -0.1125
v -3872 -576 -0.1125
v -3872 -544 -0.1125
v -3840 -544 -0.1125
v -5760 -576 -0.1125
v -5792 -576 -0.1125
v -5792 -544 -0.1125
v -5760 -544 -0.1125
v -2688 -608 -0.11875
v -2720 -608 -0.11875
v -2720 -576 -0.11875
v -2688 -576 -0.11875
v -2944 -608 -0.11875
v -2976 -608 -0.11875
v -2976 -576 -0.11875
v -2944 -576 -0.11875
v -3872 -608 -0.11875
v -3904 -608 -0.11875
v -3904 -576 -0.11875
v -3872 -576 -0.11875
v -5792 -608 -0.11875
v -5824 -608 -0.11875
v -5824 -576 -0.11875
v -5792 -576 -0.11875
v -2976 -640 -0.125
v -3008 -640 -0.125
v -3008 -608 -0.125
v -2976 -608 -0.125
v -3264 -640 -0.125
v -3296 -640 -0.125
v -3296 -608 -0.125
v -3264 -608 -0.125
v -3904 -640 -0.125
v -3936 -640 -0.125
v -3936 -608 -0.125
v -3904 -608 -0.125
v -5824 -640 -0.125
v -5856 -640 -0.125
v -5856 -608 -0.125
v -5824 -608 -0.125
v -3008 -672 -0.13125
v -3040 -672 -0.13125
v -3040 -640 -0.13125
v -3008 -640 -0.13125
v -3296 -672 -0.13125
v -3328 -672 -0.13125
v -3328 -640 -0.13125
v -3296 -640 -0.13125
v -3936 -672 -0.13125
v -3968 -672 -0.13125
v -3968 -640 -0.13125
v -3936 -640 -0.13125
v -5856 -672 -0.13125
v -5888 -672 -0.13125
v -5888 -640 -0.13125
v -5856 -640 -0.13125
v -3424 -704 -0.1375
v -3456 -704 -0.1375
v -3456 -672 -0.1375
v -3424 -672 -0.1375
v -3968 -704 -0.1375
v -4000 -704 -0.1375
v -4000 -672 -0.1375
v -3968 -672 -0.1375
v -5888 -704 -0.1375
v -5920 -704 -0.1375
v -5920 -672 -0.1375
v -5888 -672 -0.1375
v -4000 -736 -0.14375
v -4032 -736 -0.14375
v -4032 -704 -0.14375
v -4000 -704 -0.14375
v -5088 -736 -0.14375
v -5120 -736 -0.14375
v -5120 -704 -0.14375
v -5088 -704 -0.14375
v -5280 -736 -0.14375
v -5312 -736 -0.14375
v -5312 -704 -0.14375
v -5280 -704 -0.14375
v -5920 -736 -0.14375
v -5952 -736 -0.14375
v -5952 -704 -0.14375
v -5920 -704 -0.14375
v -6464 -736 -0.14375
v -6496 -736 -0.14375
v -6496 -704 -0.14375
v -6464 -704 -0.14375
v -5952 -768 -0.15
v -5984 -768 -0.15
v -5984 -736 -0.15
v -5952 -736 -0.15
v -5984 -800 -0.15625
v -6016 -800 -0.15625
v -6016 -768 -0.15625
v -5984 -768 -0.15625
v -6048 -864 -0.16875
v -6080 -864 -0.16875
v -6080 -832 -0.16875
v -6048 -832 -0.16875
v -6304 -864 -0.16875
v -6336 -864 -0.16875
v -6336 -832 -0.16875
v -6304 -832 -0.16875
v -6720 -960 -0.1875
v -6752 -960 -0.1875
v -6752 -928 -0.1875
v -6720 -928 -0.1875
v -6752 -992 -0.19375
v -6784 -992 -0.19375
v -6784 -960 -0.19375
v -6752 -960 -0.19375
v -6784 -1024 -0.2
v -6816 -1024 -0.2
v -6816 -992 -0.2
v -6784 -992 -0.2
v -6816 -1056 -0.20625
v -6848 -1056 -0.20625
v -6848 -1024 -0.20625
v -6816 -1024 -0.20625
v -6848 -1088 -0.2125
v -6880 -1088 -0.2125
v -6880 -1056 -0.2125
v -6848 -1056 -0.2125
v -6880 -1120 -0.21875
v -6912 -1120 -0.21875
v -6912 -1088 -0.21875
v -6880 -1088 -0.21875
v -6912 -1152 -0.225
v -6944 -1152 -0.225
v -6944 -1120 -0.225
v -6912 -1120 -0.225
v -6944 -1184 -0.23125
v -6976 -1184 -0.23125
v -6976 -1152 -0.23125
v -6944 -1152 -0.23125
v -6976 -1216 -0.2375
v -7008 -1216 -0.2375
v -7008 -1184 -0.2375
v -6976 -1184 -0.2375
v -7008 -1248 -0.24375
v -7040 -1248 -0.24375
v -7040 -1216 -0.24375
v -7008 -1216 -0.24375
v -7040 -1280 -0.25
v -7072 -1280 -0.25
v -7072 -1248 -0.25
v -7040 -1248 -0.25
v -7072 -1312 -0.25625
v -7104 -1312 -0.25625
v -7104 -1280 -0.25625
v -7072 -1280 -0.25625
v -7104 -1344 -0.2625
v -7136 -1344 -0.2625
v -7136 -1312 -0.2625
v -7104 -1312 -0.2625
v -7136 -1376 -0.26875
v -7168 -1376 -0.26875
v -7168 -1344 -0.26875
v -7136 -1344 -0.26875
v -7168 -1408 -0.275
v -7200 -1408 -0.275
v -7200 -1376 -0.275
v -7168 -1376 -0.275
v -7200 -1440 -0.28125
v -7232 -1440 -0.28125
v -7232 -1408 -0.28125
v -7200 -1408 -0.28125
v -7232 -1472 -0.2875
v -7264 -1472 -0.2875
v -7264 -1440 -0.2875
v -7232 -1440 -0.2875
v -7264 -1504 -0.29375
v -7296 -1504 -0.29375
v -7296 -1472 -0.29375
v -7264 -1472 -0.29375
v -7296 -1536 -0.3
v -7328 -1536 -0.3
v -7328 -1504 -0.3
v -7296 -1504 -0.3
v -7328 -1696 -0.33125
v -7360 -1696 -0.33125
v -7360 -1664 -0.33125
v -7328 -1664 -0.33125
v -7360 -1728 -0.3375
v -7392 -1728 -0.3375
v -7392 -1696 -0.3375
v -7360 -1696 -0.3375
v -7392 -1760 -0.34375
v -7424 -1760 -0.34375
v -7424 -1728 -0.34375
v -7392 -1728 -0.34375
v -7424 -1792 -0.35
v -7456 -1792 -0.35
v -7456 -1760 -0.35
v -7424 -1760 -0.35
v -7456 -1824 -0.35625
v -7488 -1824 -0.35625
v -7488 -1792 -0.35625
v -7456 -1792 -0.35625
v -7488 -1856 -0.3625
v -7520 -1856 -0.3625
v -7520 -1824 -0.3625
v -7488 -1824 -0.3625
v -7520 -1888 -0.36875
v -7552 -1888 -0.36875
v -7552 -1856 -0.36875
v -7520 -1856 -0.36875
v -7552 -2048 -0.4
v -7584 -2048 -0.4
v -7584 -2016 -0.4
v -7552 -2016 -0.4
v -7584 -2080 -0.40625
v -7616 -2080 -0.40625
v -7616 -2048 -0.40625
v -7584 -2048 -0.40625
v -7616 -2144 -0.41875
v -7648 -2144 -0.41875
v -7648 -2112 -0.41875
v -7616 -2112 -0.41875
v -7616 -2176 -0.425
v -7648 -2176 -0.425
v -7648 -2144 -0.425
v -7616 -2144 -0.425
v -7648 -2208 -0.43125
v -7680 -2208 -0.43125
v -7680 -2176 -0.43125
v -7648 -2176 -0.43125
v -7680 -2240 -0.4375
v -7712 -2240 -0.4375
v -7712 -2208 -0.4375
v -7680 -2208 -0.4375
v -7712 -2304 -0.45
v -7744 -2304 -0.45
v -7744 -2272 -0.45
v -7712 -2272 -0.45
v -7744 -2368 -0.4625
v -7776 -2368 -0.4625
v -7776 -2336 -0.4625
v -7744 -2336 -0.4625
v -7840 -2496 -0.4875
v -7872 -2496 -0.4875
v -7872 -2464 -0.4875
v -7840 -2464 -0.4875
v -7872 -2528 -0.49375
v -7904 -2528 -0.49375
v -7904 -2496 -0.49375
v -7872 -2496 -0.49375
v -7904 -2560 -0.5
v -7936 -2560 -0.5
v -7936 -2528 -0.5
v -7904 -2528 -0.5
v -7936 -2592 -0.50625
v -7968 -2592 -0.50625
v -7968 -2560 -0.50625
v -7936 -2560 -0.50625
v -7968 -2624 -0.5125
v -8000 -2624 -0.5125
v -8000 -2592 -0.5125
v -7968 -2592 -0.5125

# Texture cooridinates (Count = 4)
vt 0 0
vt 1 0
vt 1 1
vt 0 1

# Normal
vn 0 0 -1

# Mesh description
g untitled_mesh_0043

# Faces
f 1/1/1 2/2/1 3/3/1 4/4/1
f 5/1/1 6/2/1 7/3/1 8/4/1
f 9/1/1 10/2/1 11/3/1 12/4/1
f 13/1/1 14/2/1 15/3/1 16/4/1
f 17/1/1 18/2/1 19/3/1 20/4/1
f 21/1/1 22/2/1 23/3/1 24/4/1
f 25/1/1 26/2/1 27/3/1 28/4/1
f 29/1/1 30/2/1 31/3/1 32/4/1
f 33/1/1 34/2/1 35/3/1 36/4/1
f 37/1/1 38/2/1 39/3/1 40/4/1
f 41/1/1 42/2/1 43/3/1 44/4/1
f 45/1/1 46/2/1 47/3/1 48/4/1
f 49/1/1 50/2/1 51/3/1 52/4/1
f 53/1/1 54/2/1 55/3/1 56/4/1
f 57/1/1 58/2/1 59/3/1 60/4/1
f 61/1/1 62/2/1 63/3/1 64/4/1
f 65/1/1 66/2/1 67/3/1 68/4/1
f 69/1/1 70/2/1 71/3/1 72/4/1
f 73/1/1 74/2/1 75/3/1 76/4/1
f 77/1/1 78/2/1 79/3/1 80/4/1
f 81/1/1 82/2/1 83/3/1 84/4/1
f 85/1/1 86/2/1 87/3/1 88/4/1
f 89/1/1 90/2/1 91/3/1 92/4/1
f 93/1/1 94/2/1 95/3/1 96/4/1
f 97/1/1 98/2/1 99/3/1 100/4/1
f 101/1/1 102/2/1 103/3/1 104/4/1
f 105/1/1 106/2/1 107/3/1 108/4/1
f 109/1/1 110/2/1 111/3/1 112/4/1
f 113/1/1 114/2/1 115/3/1 116/4/1
f 117/1/1 118/2/1 119/3/1 120/4/1
f 121/1/1 122/2/1 123/3/1 124/4/1
f 125/1/1 126/2/1 127/3/1 128/4/1
f 129/1/1 130/2/1 131/3/1 132/4/1
f 133/1/1 134/2/1 135/3/1 136/4/1
f 137/1/1 138/2/1 139/3/1 140/4/1
f 141/1/1 142/2/1 143/3/1 144/4/1
f 145/1/1 146/2/1 147/3/1 148/4/1
f 149/1/1 150/2/1 151/3/1 152/4/1
f 153/1/1 154/2/1 155/3/1 156/4/1
f 157/1/1 158/2/1 159/3/1 160/4/1
f 161/1/1 162/2/1 163/3/1 164/4/1
f 165/1/1 166/2/1 167/3/1 168/4/1
f 169/1/1 170/2/1 171/3/1 172/4/1
f 173/1/1 174/2/1 175/3/1 176/4/1
f 177/1/1 178/2/1 179/3/1 180/4/1
f 181/1/1 182/2/1 183/3/1 184/4/1
f 185/1/1 186/2/1 187/3/1 188/4/1
f 189/1/1 190/2/1 191/3/1 192/4/1
f 193/1/1 194/2/1 195/3/1 196/4/1
f 197/1/1 198/2/1 199/3/1 200/4/1
f 201/1/1 202/2/1 203/3/1 204/4/1
f 205/1/1 206/2/1 207/3/1 208/4/1
f 209/1/1 210/2/1 211/3/1 212/4/1
f 213/1/1 214/2/1 215/3/1 216/4/1
f 217/1/1 218/2/1 219/3/1 220/4/1
f 221/1/1 222/2/1 223/3/1 224/4/1
f 225/1/1 226/2/1 227/3/1 228/4/1
f 229/1/1 230/2/1 231/3/1 232/4/1
f 233/1/1 234/2/1 235/3/1 236/4/1
f 237/1/1 238/2/1 239/3/1 240/4/1
f 241/1/1 242/2/1 243/3/1 244/4/1
f 245/1/1 246/2/1 247/3/1 248/4/1
f 249/1/1 250/2/1 251/3/1 252/4/1
f 253/1/1 254/2/1 255/3/1 256/4/1
f 257/1/1 258/2/1 259/3/1 260/4/1
f 261/1/1 262/2/1 263/3/1 264/4/1
f 265/1/1 266/2/1 267/3/1 268/4/1
f 269/1/1 270/2/1 271/3/1 272/4/1
f 273/1/1 274/2/1 275/3/1 276/4/1
f 277/1/1 278/2/1 279/3/1 280/4/1
f 281/1/1 282/2/1 283/3/1 284/4/1
f 285/1/1 286/2/1 287/3/1 288/4/1
f 289/1/1 290/2/1 291/3/1 292/4/1
f 293/1/1 294/2/1 295/3/1 296/4/1
f 297/1/1 298/2/1 299/3/1 300/4/1
f 301/1/1 302/2/1 303/3/1 304/4/1
f 305/1/1 306/2/1 307/3/1 308/4/1
f 309/1/1 310/2/1 311/3/1 312/4/1

