# Tiled2Unity generated file. Do not modify by hand.
# Wavefront file for 'untitled_mesh_0022.obj'

# Vertices (Count = 184)
v -2784 -416 -0.08125
v -2816 -416 -0.08125
v -2816 -384 -0.08125
v -2784 -384 -0.08125
v -3520 -416 -0.08125
v -3552 -416 -0.08125
v -3552 -384 -0.08125
v -3520 -384 -0.08125
v -3552 -416 -0.08125
v -3584 -416 -0.08125
v -3584 -384 -0.08125
v -3552 -384 -0.08125
v -3584 -416 -0.08125
v -3616 -416 -0.08125
v -3616 -384 -0.08125
v -3584 -384 -0.08125
v -3712 -416 -0.08125
v -3744 -416 -0.08125
v -3744 -384 -0.08125
v -3712 -384 -0.08125
v -4160 -416 -0.08125
v -4192 -416 -0.08125
v -4192 -384 -0.08125
v -4160 -384 -0.08125
v -4192 -416 -0.08125
v -4224 -416 -0.08125
v -4224 -384 -0.08125
v -4192 -384 -0.08125
v -4224 -416 -0.08125
v -4256 -416 -0.08125
v -4256 -384 -0.08125
v -4224 -384 -0.08125
v -5152 -416 -0.08125
v -5184 -416 -0.08125
v -5184 -384 -0.08125
v -5152 -384 -0.08125
v -5184 -416 -0.08125
v -5216 -416 -0.08125
v -5216 -384 -0.08125
v -5184 -384 -0.08125
v -5440 -416 -0.08125
v -5472 -416 -0.08125
v -5472 -384 -0.08125
v -5440 -384 -0.08125
v -5472 -416 -0.08125
v -5504 -416 -0.08125
v -5504 -384 -0.08125
v -5472 -384 -0.08125
v -3008 -448 -0.0875
v -3040 -448 -0.0875
v -3040 -416 -0.0875
v -3008 -416 -0.0875
v -3040 -448 -0.0875
v -3072 -448 -0.0875
v -3072 -416 -0.0875
v -3040 -416 -0.0875
v -3392 -448 -0.0875
v -3424 -448 -0.0875
v -3424 -416 -0.0875
v -3392 -416 -0.0875
v -3424 -448 -0.0875
v -3456 -448 -0.0875
v -3456 -416 -0.0875
v -3424 -416 -0.0875
v -3456 -448 -0.0875
v -3488 -448 -0.0875
v -3488 -416 -0.0875
v -3456 -416 -0.0875
v -3680 -448 -0.0875
v -3712 -448 -0.0875
v -3712 -416 -0.0875
v -3680 -416 -0.0875
v -5632 -448 -0.0875
v -5664 -448 -0.0875
v -5664 -416 -0.0875
v -5632 -416 -0.0875
v -2880 -480 -0.09375
v -2912 -480 -0.09375
v -2912 -448 -0.09375
v -2880 -448 -0.09375
v -2912 -480 -0.09375
v -2944 -480 -0.09375
v -2944 -448 -0.09375
v -2912 -448 -0.09375
v -2944 -480 -0.09375
v -2976 -480 -0.09375
v -2976 -448 -0.09375
v -2944 -448 -0.09375
v -3104 -480 -0.09375
v -3136 -480 -0.09375
v -3136 -448 -0.09375
v -3104 -448 -0.09375
v -4000 -480 -0.09375
v -4032 -480 -0.09375
v -4032 -448 -0.09375
v -4000 -448 -0.09375
v -4032 -480 -0.09375
v -4064 -480 -0.09375
v -4064 -448 -0.09375
v -4032 -448 -0.09375
v -4064 -480 -0.09375
v -4096 -480 -0.09375
v -4096 -448 -0.09375
v -4064 -448 -0.09375
v -5056 -480 -0.09375
v -5088 -480 -0.09375
v -5088 -448 -0.09375
v -5056 -448 -0.09375
v -3936 -512 -0.1
v -3968 -512 -0.1
v -3968 -480 -0.1
v -3936 -480 -0.1
v -4384 -512 -0.1
v -4416 -512 -0.1
v -4416 -480 -0.1
v -4384 -480 -0.1
v -5312 -512 -0.1
v -5344 -512 -0.1
v -5344 -480 -0.1
v -5312 -480 -0.1
v -3200 -544 -0.10625
v -3232 -544 -0.10625
v -3232 -512 -0.10625
v -3200 -512 -0.10625
v -3200 -576 -0.1125
v -3232 -576 -0.1125
v -3232 -544 -0.1125
v -3200 -544 -0.1125
v -3264 -576 -0.1125
v -3296 -576 -0.1125
v -3296 -544 -0.1125
v -3264 -544 -0.1125
v -4800 -576 -0.1125
v -4832 -576 -0.1125
v -4832 -544 -0.1125
v -4800 -544 -0.1125
v -4832 -576 -0.1125
v -4864 -576 -0.1125
v -4864 -544 -0.1125
v -4832 -544 -0.1125
v -4608 -608 -0.11875
v -4640 -608 -0.11875
v -4640 -576 -0.11875
v -4608 -576 -0.11875
v -4704 -608 -0.11875
v -4736 -608 -0.11875
v -4736 -576 -0.11875
v -4704 -576 -0.11875
v -4736 -608 -0.11875
v -4768 -608 -0.11875
v -4768 -576 -0.11875
v -4736 -576 -0.11875
v -4768 -608 -0.11875
v -4800 -608 -0.11875
v -4800 -576 -0.11875
v -4768 -576 -0.11875
v -6016 -608 -0.11875
v -6048 -608 -0.11875
v -6048 -576 -0.11875
v -6016 -576 -0.11875
v -6048 -608 -0.11875
v -6080 -608 -0.11875
v -6080 -576 -0.11875
v -6048 -576 -0.11875
v -6144 -672 -0.13125
v -6176 -672 -0.13125
v -6176 -640 -0.13125
v -6144 -640 -0.13125
v -6176 -672 -0.13125
v -6208 -672 -0.13125
v -6208 -640 -0.13125
v -6176 -640 -0.13125
v -6240 -704 -0.1375
v -6272 -704 -0.1375
v -6272 -672 -0.1375
v -6240 -672 -0.1375
v -6272 -704 -0.1375
v -6304 -704 -0.1375
v -6304 -672 -0.1375
v -6272 -672 -0.1375
v -6304 -704 -0.1375
v -6336 -704 -0.1375
v -6336 -672 -0.1375
v -6304 -672 -0.1375

# Texture cooridinates (Count = 4)
vt 0 0
vt 1 0
vt 1 1
vt 0 1

# Normal
vn 0 0 -1

# Mesh description
g untitled_mesh_0022

# Faces
f 1/1/1 2/2/1 3/3/1 4/4/1
f 5/1/1 6/2/1 7/3/1 8/4/1
f 9/1/1 10/2/1 11/3/1 12/4/1
f 13/1/1 14/2/1 15/3/1 16/4/1
f 17/1/1 18/2/1 19/3/1 20/4/1
f 21/1/1 22/2/1 23/3/1 24/4/1
f 25/1/1 26/2/1 27/3/1 28/4/1
f 29/1/1 30/2/1 31/3/1 32/4/1
f 33/1/1 34/2/1 35/3/1 36/4/1
f 37/1/1 38/2/1 39/3/1 40/4/1
f 41/1/1 42/2/1 43/3/1 44/4/1
f 45/1/1 46/2/1 47/3/1 48/4/1
f 49/1/1 50/2/1 51/3/1 52/4/1
f 53/1/1 54/2/1 55/3/1 56/4/1
f 57/1/1 58/2/1 59/3/1 60/4/1
f 61/1/1 62/2/1 63/3/1 64/4/1
f 65/1/1 66/2/1 67/3/1 68/4/1
f 69/1/1 70/2/1 71/3/1 72/4/1
f 73/1/1 74/2/1 75/3/1 76/4/1
f 77/1/1 78/2/1 79/3/1 80/4/1
f 81/1/1 82/2/1 83/3/1 84/4/1
f 85/1/1 86/2/1 87/3/1 88/4/1
f 89/1/1 90/2/1 91/3/1 92/4/1
f 93/1/1 94/2/1 95/3/1 96/4/1
f 97/1/1 98/2/1 99/3/1 100/4/1
f 101/1/1 102/2/1 103/3/1 104/4/1
f 105/1/1 106/2/1 107/3/1 108/4/1
f 109/1/1 110/2/1 111/3/1 112/4/1
f 113/1/1 114/2/1 115/3/1 116/4/1
f 117/1/1 118/2/1 119/3/1 120/4/1
f 121/1/1 122/2/1 123/3/1 124/4/1
f 125/1/1 126/2/1 127/3/1 128/4/1
f 129/1/1 130/2/1 131/3/1 132/4/1
f 133/1/1 134/2/1 135/3/1 136/4/1
f 137/1/1 138/2/1 139/3/1 140/4/1
f 141/1/1 142/2/1 143/3/1 144/4/1
f 145/1/1 146/2/1 147/3/1 148/4/1
f 149/1/1 150/2/1 151/3/1 152/4/1
f 153/1/1 154/2/1 155/3/1 156/4/1
f 157/1/1 158/2/1 159/3/1 160/4/1
f 161/1/1 162/2/1 163/3/1 164/4/1
f 165/1/1 166/2/1 167/3/1 168/4/1
f 169/1/1 170/2/1 171/3/1 172/4/1
f 173/1/1 174/2/1 175/3/1 176/4/1
f 177/1/1 178/2/1 179/3/1 180/4/1
f 181/1/1 182/2/1 183/3/1 184/4/1

