# Tiled2Unity generated file. Do not modify by hand.
# Wavefront file for 'untitled_mesh_0047.obj'

# Vertices (Count = 12)
v -3648 -512 -0.1
v -3680 -512 -0.1
v -3680 -480 -0.1
v -3648 -480 -0.1
v -3680 -544 -0.10625
v -3712 -544 -0.10625
v -3712 -512 -0.10625
v -3680 -512 -0.10625
v -6400 -768 -0.15
v -6432 -768 -0.15
v -6432 -736 -0.15
v -6400 -736 -0.15

# Texture cooridinates (Count = 4)
vt 0 0
vt 1 0
vt 1 1
vt 0 1

# Normal
vn 0 0 -1

# Mesh description
g untitled_mesh_0047

# Faces
f 1/1/1 2/2/1 3/3/1 4/4/1
f 5/1/1 6/2/1 7/3/1 8/4/1
f 9/1/1 10/2/1 11/3/1 12/4/1

