# Tiled2Unity generated file. Do not modify by hand.
# Wavefront file for 'untitled_mesh_0033.obj'

# Vertices (Count = 368)
v -2560 -352 -0.06875
v -2592 -352 -0.06875
v -2592 -320 -0.06875
v -2560 -320 -0.06875
v -2528 -384 -0.075
v -2560 -384 -0.075
v -2560 -352 -0.075
v -2528 -352 -0.075
v -2496 -448 -0.0875
v -2528 -448 -0.0875
v -2528 -416 -0.0875
v -2496 -416 -0.0875
v -2464 -512 -0.1
v -2496 -512 -0.1
v -2496 -480 -0.1
v -2464 -480 -0.1
v -2432 -544 -0.10625
v -2464 -544 -0.10625
v -2464 -512 -0.10625
v -2432 -512 -0.10625
v -4768 -544 -0.10625
v -4800 -544 -0.10625
v -4800 -512 -0.10625
v -4768 -512 -0.10625
v -2400 -576 -0.1125
v -2432 -576 -0.1125
v -2432 -544 -0.1125
v -2400 -544 -0.1125
v -4736 -576 -0.1125
v -4768 -576 -0.1125
v -4768 -544 -0.1125
v -4736 -544 -0.1125
v -2368 -608 -0.11875
v -2400 -608 -0.11875
v -2400 -576 -0.11875
v -2368 -576 -0.11875
v -3232 -608 -0.11875
v -3264 -608 -0.11875
v -3264 -576 -0.11875
v -3232 -576 -0.11875
v -3648 -608 -0.11875
v -3680 -608 -0.11875
v -3680 -576 -0.11875
v -3648 -576 -0.11875
v -4576 -608 -0.11875
v -4608 -608 -0.11875
v -4608 -576 -0.11875
v -4576 -576 -0.11875
v -2336 -640 -0.125
v -2368 -640 -0.125
v -2368 -608 -0.125
v -2336 -608 -0.125
v -3616 -640 -0.125
v -3648 -640 -0.125
v -3648 -608 -0.125
v -3616 -608 -0.125
v -4224 -640 -0.125
v -4256 -640 -0.125
v -4256 -608 -0.125
v -4224 -608 -0.125
v -2272 -672 -0.13125
v -2304 -672 -0.13125
v -2304 -640 -0.13125
v -2272 -640 -0.13125
v -3520 -672 -0.13125
v -3552 -672 -0.13125
v -3552 -640 -0.13125
v -3520 -640 -0.13125
v -4192 -672 -0.13125
v -4224 -672 -0.13125
v -4224 -640 -0.13125
v -4192 -640 -0.13125
v -5344 -672 -0.13125
v -5376 -672 -0.13125
v -5376 -640 -0.13125
v -5344 -640 -0.13125
v -2240 -704 -0.1375
v -2272 -704 -0.1375
v -2272 -672 -0.1375
v -2240 -672 -0.1375
v -4960 -704 -0.1375
v -4992 -704 -0.1375
v -4992 -672 -0.1375
v -4960 -672 -0.1375
v -5152 -704 -0.1375
v -5184 -704 -0.1375
v -5184 -672 -0.1375
v -5152 -672 -0.1375
v -5312 -704 -0.1375
v -5344 -704 -0.1375
v -5344 -672 -0.1375
v -5312 -672 -0.1375
v -6336 -704 -0.1375
v -6368 -704 -0.1375
v -6368 -672 -0.1375
v -6336 -672 -0.1375
v -2208 -736 -0.14375
v -2240 -736 -0.14375
v -2240 -704 -0.14375
v -2208 -704 -0.14375
v -6208 -736 -0.14375
v -6240 -736 -0.14375
v -6240 -704 -0.14375
v -6208 -704 -0.14375
v -2176 -800 -0.15625
v -2208 -800 -0.15625
v -2208 -768 -0.15625
v -2176 -768 -0.15625
v -6272 -832 -0.1625
v -6304 -832 -0.1625
v -6304 -800 -0.1625
v -6272 -800 -0.1625
v -2144 -896 -0.175
v -2176 -896 -0.175
v -2176 -864 -0.175
v -2144 -864 -0.175
v -2112 -928 -0.18125
v -2144 -928 -0.18125
v -2144 -896 -0.18125
v -2112 -896 -0.18125
v -6592 -928 -0.18125
v -6624 -928 -0.18125
v -6624 -896 -0.18125
v -6592 -896 -0.18125
v -6560 -960 -0.1875
v -6592 -960 -0.1875
v -6592 -928 -0.1875
v -6560 -928 -0.1875
v -2016 -1024 -0.2
v -2048 -1024 -0.2
v -2048 -992 -0.2
v -2016 -992 -0.2
v -1984 -1312 -0.25625
v -2016 -1312 -0.25625
v -2016 -1280 -0.25625
v -1984 -1280 -0.25625
v -1952 -1344 -0.2625
v -1984 -1344 -0.2625
v -1984 -1312 -0.2625
v -1952 -1312 -0.2625
v -1920 -1376 -0.26875
v -1952 -1376 -0.26875
v -1952 -1344 -0.26875
v -1920 -1344 -0.26875
v -1888 -1408 -0.275
v -1920 -1408 -0.275
v -1920 -1376 -0.275
v -1888 -1376 -0.275
v -1856 -1440 -0.28125
v -1888 -1440 -0.28125
v -1888 -1408 -0.28125
v -1856 -1408 -0.28125
v -1824 -1536 -0.3
v -1856 -1536 -0.3
v -1856 -1504 -0.3
v -1824 -1504 -0.3
v -1792 -1568 -0.30625
v -1824 -1568 -0.30625
v -1824 -1536 -0.30625
v -1792 -1536 -0.30625
v -1760 -1600 -0.3125
v -1792 -1600 -0.3125
v -1792 -1568 -0.3125
v -1760 -1568 -0.3125
v -1728 -1696 -0.33125
v -1760 -1696 -0.33125
v -1760 -1664 -0.33125
v -1728 -1664 -0.33125
v -1696 -1760 -0.34375
v -1728 -1760 -0.34375
v -1728 -1728 -0.34375
v -1696 -1728 -0.34375
v -1664 -1792 -0.35
v -1696 -1792 -0.35
v -1696 -1760 -0.35
v -1664 -1760 -0.35
v -1632 -1856 -0.3625
v -1664 -1856 -0.3625
v -1664 -1824 -0.3625
v -1632 -1824 -0.3625
v -1600 -1888 -0.36875
v -1632 -1888 -0.36875
v -1632 -1856 -0.36875
v -1600 -1856 -0.36875
v -1568 -1920 -0.375
v -1600 -1920 -0.375
v -1600 -1888 -0.375
v -1568 -1888 -0.375
v -1536 -1984 -0.3875
v -1568 -1984 -0.3875
v -1568 -1952 -0.3875
v -1536 -1952 -0.3875
v -1504 -2048 -0.4
v -1536 -2048 -0.4
v -1536 -2016 -0.4
v -1504 -2016 -0.4
v -1472 -2112 -0.4125
v -1504 -2112 -0.4125
v -1504 -2080 -0.4125
v -1472 -2080 -0.4125
v -1440 -2144 -0.41875
v -1472 -2144 -0.41875
v -1472 -2112 -0.41875
v -1440 -2112 -0.41875
v -1408 -2208 -0.43125
v -1440 -2208 -0.43125
v -1440 -2176 -0.43125
v -1408 -2176 -0.43125
v -1376 -2240 -0.4375
v -1408 -2240 -0.4375
v -1408 -2208 -0.4375
v -1376 -2208 -0.4375
v -1344 -2304 -0.45
v -1376 -2304 -0.45
v -1376 -2272 -0.45
v -1344 -2272 -0.45
v -1312 -2368 -0.4625
v -1344 -2368 -0.4625
v -1344 -2336 -0.4625
v -1312 -2336 -0.4625
v -1280 -2400 -0.46875
v -1312 -2400 -0.46875
v -1312 -2368 -0.46875
v -1280 -2368 -0.46875
v -1248 -2464 -0.48125
v -1280 -2464 -0.48125
v -1280 -2432 -0.48125
v -1248 -2432 -0.48125
v -1216 -2496 -0.4875
v -1248 -2496 -0.4875
v -1248 -2464 -0.4875
v -1216 -2464 -0.4875
v -1184 -2560 -0.5
v -1216 -2560 -0.5
v -1216 -2528 -0.5
v -1184 -2528 -0.5
v -1152 -2592 -0.50625
v -1184 -2592 -0.50625
v -1184 -2560 -0.50625
v -1152 -2560 -0.50625
v -1120 -2624 -0.5125
v -1152 -2624 -0.5125
v -1152 -2592 -0.5125
v -1120 -2592 -0.5125
v -1088 -2656 -0.51875
v -1120 -2656 -0.51875
v -1120 -2624 -0.51875
v -1088 -2624 -0.51875
v -1056 -2752 -0.5375
v -1088 -2752 -0.5375
v -1088 -2720 -0.5375
v -1056 -2720 -0.5375
v -1024 -2816 -0.55
v -1056 -2816 -0.55
v -1056 -2784 -0.55
v -1024 -2784 -0.55
v -992 -2848 -0.55625
v -1024 -2848 -0.55625
v -1024 -2816 -0.55625
v -992 -2816 -0.55625
v -960 -2912 -0.56875
v -992 -2912 -0.56875
v -992 -2880 -0.56875
v -960 -2880 -0.56875
v -928 -2976 -0.58125
v -960 -2976 -0.58125
v -960 -2944 -0.58125
v -928 -2944 -0.58125
v -896 -3040 -0.59375
v -928 -3040 -0.59375
v -928 -3008 -0.59375
v -896 -3008 -0.59375
v -864 -3072 -0.6
v -896 -3072 -0.6
v -896 -3040 -0.6
v -864 -3040 -0.6
v -832 -3168 -0.61875
v -864 -3168 -0.61875
v -864 -3136 -0.61875
v -832 -3136 -0.61875
v -800 -3200 -0.625
v -832 -3200 -0.625
v -832 -3168 -0.625
v -800 -3168 -0.625
v -768 -3264 -0.6375
v -800 -3264 -0.6375
v -800 -3232 -0.6375
v -768 -3232 -0.6375
v -736 -3328 -0.65
v -768 -3328 -0.65
v -768 -3296 -0.65
v -736 -3296 -0.65
v -704 -3360 -0.65625
v -736 -3360 -0.65625
v -736 -3328 -0.65625
v -704 -3328 -0.65625
v -672 -3424 -0.66875
v -704 -3424 -0.66875
v -704 -3392 -0.66875
v -672 -3392 -0.66875
v -640 -3520 -0.6875
v -672 -3520 -0.6875
v -672 -3488 -0.6875
v -640 -3488 -0.6875
v -608 -3552 -0.69375
v -640 -3552 -0.69375
v -640 -3520 -0.69375
v -608 -3520 -0.69375
v -576 -3616 -0.70625
v -608 -3616 -0.70625
v -608 -3584 -0.70625
v -576 -3584 -0.70625
v -544 -3712 -0.725
v -576 -3712 -0.725
v -576 -3680 -0.725
v -544 -3680 -0.725
v -512 -3744 -0.73125
v -544 -3744 -0.73125
v -544 -3712 -0.73125
v -512 -3712 -0.73125
v -480 -3808 -0.74375
v -512 -3808 -0.74375
v -512 -3776 -0.74375
v -480 -3776 -0.74375
v -448 -3872 -0.75625
v -480 -3872 -0.75625
v -480 -3840 -0.75625
v -448 -3840 -0.75625
v -416 -3936 -0.76875
v -448 -3936 -0.76875
v -448 -3904 -0.76875
v -416 -3904 -0.76875
v -384 -3968 -0.775
v -416 -3968 -0.775
v -416 -3936 -0.775
v -384 -3936 -0.775
v -352 -4032 -0.7875
v -384 -4032 -0.7875
v -384 -4000 -0.7875
v -352 -4000 -0.7875
v -320 -4064 -0.79375
v -352 -4064 -0.79375
v -352 -4032 -0.79375
v -320 -4032 -0.79375
v -288 -4128 -0.80625
v -320 -4128 -0.80625
v -320 -4096 -0.80625
v -288 -4096 -0.80625
v -256 -4160 -0.8125
v -288 -4160 -0.8125
v -288 -4128 -0.8125
v -256 -4128 -0.8125
v -224 -4256 -0.83125
v -256 -4256 -0.83125
v -256 -4224 -0.83125
v -224 -4224 -0.83125
v -192 -4288 -0.8375
v -224 -4288 -0.8375
v -224 -4256 -0.8375
v -192 -4256 -0.8375
v -160 -4352 -0.85
v -192 -4352 -0.85
v -192 -4320 -0.85
v -160 -4320 -0.85
v -128 -4416 -0.8625
v -160 -4416 -0.8625
v -160 -4384 -0.8625
v -128 -4384 -0.8625

# Texture cooridinates (Count = 4)
vt 0 0
vt 1 0
vt 1 1
vt 0 1

# Normal
vn 0 0 -1

# Mesh description
g untitled_mesh_0033

# Faces
f 1/1/1 2/2/1 3/3/1 4/4/1
f 5/1/1 6/2/1 7/3/1 8/4/1
f 9/1/1 10/2/1 11/3/1 12/4/1
f 13/1/1 14/2/1 15/3/1 16/4/1
f 17/1/1 18/2/1 19/3/1 20/4/1
f 21/1/1 22/2/1 23/3/1 24/4/1
f 25/1/1 26/2/1 27/3/1 28/4/1
f 29/1/1 30/2/1 31/3/1 32/4/1
f 33/1/1 34/2/1 35/3/1 36/4/1
f 37/1/1 38/2/1 39/3/1 40/4/1
f 41/1/1 42/2/1 43/3/1 44/4/1
f 45/1/1 46/2/1 47/3/1 48/4/1
f 49/1/1 50/2/1 51/3/1 52/4/1
f 53/1/1 54/2/1 55/3/1 56/4/1
f 57/1/1 58/2/1 59/3/1 60/4/1
f 61/1/1 62/2/1 63/3/1 64/4/1
f 65/1/1 66/2/1 67/3/1 68/4/1
f 69/1/1 70/2/1 71/3/1 72/4/1
f 73/1/1 74/2/1 75/3/1 76/4/1
f 77/1/1 78/2/1 79/3/1 80/4/1
f 81/1/1 82/2/1 83/3/1 84/4/1
f 85/1/1 86/2/1 87/3/1 88/4/1
f 89/1/1 90/2/1 91/3/1 92/4/1
f 93/1/1 94/2/1 95/3/1 96/4/1
f 97/1/1 98/2/1 99/3/1 100/4/1
f 101/1/1 102/2/1 103/3/1 104/4/1
f 105/1/1 106/2/1 107/3/1 108/4/1
f 109/1/1 110/2/1 111/3/1 112/4/1
f 113/1/1 114/2/1 115/3/1 116/4/1
f 117/1/1 118/2/1 119/3/1 120/4/1
f 121/1/1 122/2/1 123/3/1 124/4/1
f 125/1/1 126/2/1 127/3/1 128/4/1
f 129/1/1 130/2/1 131/3/1 132/4/1
f 133/1/1 134/2/1 135/3/1 136/4/1
f 137/1/1 138/2/1 139/3/1 140/4/1
f 141/1/1 142/2/1 143/3/1 144/4/1
f 145/1/1 146/2/1 147/3/1 148/4/1
f 149/1/1 150/2/1 151/3/1 152/4/1
f 153/1/1 154/2/1 155/3/1 156/4/1
f 157/1/1 158/2/1 159/3/1 160/4/1
f 161/1/1 162/2/1 163/3/1 164/4/1
f 165/1/1 166/2/1 167/3/1 168/4/1
f 169/1/1 170/2/1 171/3/1 172/4/1
f 173/1/1 174/2/1 175/3/1 176/4/1
f 177/1/1 178/2/1 179/3/1 180/4/1
f 181/1/1 182/2/1 183/3/1 184/4/1
f 185/1/1 186/2/1 187/3/1 188/4/1
f 189/1/1 190/2/1 191/3/1 192/4/1
f 193/1/1 194/2/1 195/3/1 196/4/1
f 197/1/1 198/2/1 199/3/1 200/4/1
f 201/1/1 202/2/1 203/3/1 204/4/1
f 205/1/1 206/2/1 207/3/1 208/4/1
f 209/1/1 210/2/1 211/3/1 212/4/1
f 213/1/1 214/2/1 215/3/1 216/4/1
f 217/1/1 218/2/1 219/3/1 220/4/1
f 221/1/1 222/2/1 223/3/1 224/4/1
f 225/1/1 226/2/1 227/3/1 228/4/1
f 229/1/1 230/2/1 231/3/1 232/4/1
f 233/1/1 234/2/1 235/3/1 236/4/1
f 237/1/1 238/2/1 239/3/1 240/4/1
f 241/1/1 242/2/1 243/3/1 244/4/1
f 245/1/1 246/2/1 247/3/1 248/4/1
f 249/1/1 250/2/1 251/3/1 252/4/1
f 253/1/1 254/2/1 255/3/1 256/4/1
f 257/1/1 258/2/1 259/3/1 260/4/1
f 261/1/1 262/2/1 263/3/1 264/4/1
f 265/1/1 266/2/1 267/3/1 268/4/1
f 269/1/1 270/2/1 271/3/1 272/4/1
f 273/1/1 274/2/1 275/3/1 276/4/1
f 277/1/1 278/2/1 279/3/1 280/4/1
f 281/1/1 282/2/1 283/3/1 284/4/1
f 285/1/1 286/2/1 287/3/1 288/4/1
f 289/1/1 290/2/1 291/3/1 292/4/1
f 293/1/1 294/2/1 295/3/1 296/4/1
f 297/1/1 298/2/1 299/3/1 300/4/1
f 301/1/1 302/2/1 303/3/1 304/4/1
f 305/1/1 306/2/1 307/3/1 308/4/1
f 309/1/1 310/2/1 311/3/1 312/4/1
f 313/1/1 314/2/1 315/3/1 316/4/1
f 317/1/1 318/2/1 319/3/1 320/4/1
f 321/1/1 322/2/1 323/3/1 324/4/1
f 325/1/1 326/2/1 327/3/1 328/4/1
f 329/1/1 330/2/1 331/3/1 332/4/1
f 333/1/1 334/2/1 335/3/1 336/4/1
f 337/1/1 338/2/1 339/3/1 340/4/1
f 341/1/1 342/2/1 343/3/1 344/4/1
f 345/1/1 346/2/1 347/3/1 348/4/1
f 349/1/1 350/2/1 351/3/1 352/4/1
f 353/1/1 354/2/1 355/3/1 356/4/1
f 357/1/1 358/2/1 359/3/1 360/4/1
f 361/1/1 362/2/1 363/3/1 364/4/1
f 365/1/1 366/2/1 367/3/1 368/4/1

