# Tiled2Unity generated file. Do not modify by hand.
# Wavefront file for 'untitled_mesh_0005.obj'

# Vertices (Count = 96)
v -5536 -352 -0.06875
v -5568 -352 -0.06875
v -5568 -320 -0.06875
v -5536 -320 -0.06875
v -3616 -416 -0.08125
v -3648 -416 -0.08125
v -3648 -384 -0.08125
v -3616 -384 -0.08125
v -2912 -448 -0.0875
v -2944 -448 -0.0875
v -2944 -416 -0.0875
v -2912 -416 -0.0875
v -3296 -448 -0.0875
v -3328 -448 -0.0875
v -3328 -416 -0.0875
v -3296 -416 -0.0875
v -4064 -448 -0.0875
v -4096 -448 -0.0875
v -4096 -416 -0.0875
v -4064 -416 -0.0875
v -4960 -480 -0.09375
v -4992 -480 -0.09375
v -4992 -448 -0.09375
v -4960 -448 -0.09375
v -2848 -512 -0.1
v -2880 -512 -0.1
v -2880 -480 -0.1
v -2848 -480 -0.1
v -2976 -512 -0.1
v -3008 -512 -0.1
v -3008 -480 -0.1
v -2976 -480 -0.1
v -3392 -512 -0.1
v -3424 -512 -0.1
v -3424 -480 -0.1
v -3392 -480 -0.1
v -3936 -512 -0.1
v -3968 -512 -0.1
v -3968 -480 -0.1
v -3936 -480 -0.1
v -4192 -512 -0.1
v -4224 -512 -0.1
v -4224 -480 -0.1
v -4192 -480 -0.1
v -5120 -512 -0.1
v -5152 -512 -0.1
v -5152 -480 -0.1
v -5120 -480 -0.1
v -2816 -544 -0.10625
v -2848 -544 -0.10625
v -2848 -512 -0.10625
v -2816 -512 -0.10625
v -4352 -544 -0.10625
v -4384 -544 -0.10625
v -4384 -512 -0.10625
v -4352 -512 -0.10625
v -5504 -544 -0.10625
v -5536 -544 -0.10625
v -5536 -512 -0.10625
v -5504 -512 -0.10625
v -3072 -576 -0.1125
v -3104 -576 -0.1125
v -3104 -544 -0.1125
v -3072 -544 -0.1125
v -3520 -576 -0.1125
v -3552 -576 -0.1125
v -3552 -544 -0.1125
v -3520 -544 -0.1125
v -4064 -576 -0.1125
v -4096 -576 -0.1125
v -4096 -544 -0.1125
v -4064 -544 -0.1125
v -4320 -576 -0.1125
v -4352 -576 -0.1125
v -4352 -544 -0.1125
v -4320 -544 -0.1125
v -5472 -576 -0.1125
v -5504 -576 -0.1125
v -5504 -544 -0.1125
v -5472 -544 -0.1125
v -5920 -576 -0.1125
v -5952 -576 -0.1125
v -5952 -544 -0.1125
v -5920 -544 -0.1125
v -3168 -640 -0.125
v -3200 -640 -0.125
v -3200 -608 -0.125
v -3168 -608 -0.125
v -6048 -640 -0.125
v -6080 -640 -0.125
v -6080 -608 -0.125
v -6048 -608 -0.125
v -3136 -672 -0.13125
v -3168 -672 -0.13125
v -3168 -640 -0.13125
v -3136 -640 -0.13125

# Texture cooridinates (Count = 4)
vt 0 0
vt 1 0
vt 1 1
vt 0 1

# Normal
vn 0 0 -1

# Mesh description
g untitled_mesh_0005

# Faces
f 1/1/1 2/2/1 3/3/1 4/4/1
f 5/1/1 6/2/1 7/3/1 8/4/1
f 9/1/1 10/2/1 11/3/1 12/4/1
f 13/1/1 14/2/1 15/3/1 16/4/1
f 17/1/1 18/2/1 19/3/1 20/4/1
f 21/1/1 22/2/1 23/3/1 24/4/1
f 25/1/1 26/2/1 27/3/1 28/4/1
f 29/1/1 30/2/1 31/3/1 32/4/1
f 33/1/1 34/2/1 35/3/1 36/4/1
f 37/1/1 38/2/1 39/3/1 40/4/1
f 41/1/1 42/2/1 43/3/1 44/4/1
f 45/1/1 46/2/1 47/3/1 48/4/1
f 49/1/1 50/2/1 51/3/1 52/4/1
f 53/1/1 54/2/1 55/3/1 56/4/1
f 57/1/1 58/2/1 59/3/1 60/4/1
f 61/1/1 62/2/1 63/3/1 64/4/1
f 65/1/1 66/2/1 67/3/1 68/4/1
f 69/1/1 70/2/1 71/3/1 72/4/1
f 73/1/1 74/2/1 75/3/1 76/4/1
f 77/1/1 78/2/1 79/3/1 80/4/1
f 81/1/1 82/2/1 83/3/1 84/4/1
f 85/1/1 86/2/1 87/3/1 88/4/1
f 89/1/1 90/2/1 91/3/1 92/4/1
f 93/1/1 94/2/1 95/3/1 96/4/1

