# Tiled2Unity generated file. Do not modify by hand.
# Wavefront file for 'untitled_mesh_0076.obj'

# Vertices (Count = 28)
v -2560 -736 -0.14375
v -2592 -736 -0.14375
v -2592 -704 -0.14375
v -2560 -704 -0.14375
v -5792 -736 -0.14375
v -5824 -736 -0.14375
v -5824 -704 -0.14375
v -5792 -704 -0.14375
v -2592 -768 -0.15
v -2624 -768 -0.15
v -2624 -736 -0.15
v -2592 -736 -0.15
v -4000 -768 -0.15
v -4032 -768 -0.15
v -4032 -736 -0.15
v -4000 -736 -0.15
v -4032 -800 -0.15625
v -4064 -800 -0.15625
v -4064 -768 -0.15625
v -4032 -768 -0.15625
v -4064 -832 -0.1625
v -4096 -832 -0.1625
v -4096 -800 -0.1625
v -4064 -800 -0.1625
v -6112 -832 -0.1625
v -6144 -832 -0.1625
v -6144 -800 -0.1625
v -6112 -800 -0.1625

# Texture cooridinates (Count = 4)
vt 0 0
vt 1 0
vt 1 1
vt 0 1

# Normal
vn 0 0 -1

# Mesh description
g untitled_mesh_0076

# Faces
f 1/1/1 2/2/1 3/3/1 4/4/1
f 5/1/1 6/2/1 7/3/1 8/4/1
f 9/1/1 10/2/1 11/3/1 12/4/1
f 13/1/1 14/2/1 15/3/1 16/4/1
f 17/1/1 18/2/1 19/3/1 20/4/1
f 21/1/1 22/2/1 23/3/1 24/4/1
f 25/1/1 26/2/1 27/3/1 28/4/1

