# Tiled2Unity generated file. Do not modify by hand.
# Wavefront file for 'untitled_mesh_0059.obj'

# Vertices (Count = 292)
v -5728 -576 -0.1125
v -5760 -576 -0.1125
v -5760 -544 -0.1125
v -5728 -544 -0.1125
v -5760 -576 -0.1125
v -5792 -576 -0.1125
v -5792 -544 -0.1125
v -5760 -544 -0.1125
v -2944 -640 -0.125
v -2976 -640 -0.125
v -2976 -608 -0.125
v -2944 -608 -0.125
v -2976 -640 -0.125
v -3008 -640 -0.125
v -3008 -608 -0.125
v -2976 -608 -0.125
v -3008 -640 -0.125
v -3040 -640 -0.125
v -3040 -608 -0.125
v -3008 -608 -0.125
v -3808 -672 -0.13125
v -3840 -672 -0.13125
v -3840 -640 -0.13125
v -3808 -640 -0.13125
v -3840 -672 -0.13125
v -3872 -672 -0.13125
v -3872 -640 -0.13125
v -3840 -640 -0.13125
v -3072 -704 -0.1375
v -3104 -704 -0.1375
v -3104 -672 -0.1375
v -3072 -672 -0.1375
v -3104 -704 -0.1375
v -3136 -704 -0.1375
v -3136 -672 -0.1375
v -3104 -672 -0.1375
v -3360 -704 -0.1375
v -3392 -704 -0.1375
v -3392 -672 -0.1375
v -3360 -672 -0.1375
v -3392 -704 -0.1375
v -3424 -704 -0.1375
v -3424 -672 -0.1375
v -3392 -672 -0.1375
v -3424 -704 -0.1375
v -3456 -704 -0.1375
v -3456 -672 -0.1375
v -3424 -672 -0.1375
v -3456 -704 -0.1375
v -3488 -704 -0.1375
v -3488 -672 -0.1375
v -3456 -672 -0.1375
v -5888 -704 -0.1375
v -5920 -704 -0.1375
v -5920 -672 -0.1375
v -5888 -672 -0.1375
v -2816 -736 -0.14375
v -2848 -736 -0.14375
v -2848 -704 -0.14375
v -2816 -704 -0.14375
v -2848 -736 -0.14375
v -2880 -736 -0.14375
v -2880 -704 -0.14375
v -2848 -704 -0.14375
v -3168 -736 -0.14375
v -3200 -736 -0.14375
v -3200 -704 -0.14375
v -3168 -704 -0.14375
v -3200 -736 -0.14375
v -3232 -736 -0.14375
v -3232 -704 -0.14375
v -3200 -704 -0.14375
v -3232 -736 -0.14375
v -3264 -736 -0.14375
v -3264 -704 -0.14375
v -3232 -704 -0.14375
v -3264 -736 -0.14375
v -3296 -736 -0.14375
v -3296 -704 -0.14375
v -3264 -704 -0.14375
v -3296 -736 -0.14375
v -3328 -736 -0.14375
v -3328 -704 -0.14375
v -3296 -704 -0.14375
v -3520 -736 -0.14375
v -3552 -736 -0.14375
v -3552 -704 -0.14375
v -3520 -704 -0.14375
v -3552 -736 -0.14375
v -3584 -736 -0.14375
v -3584 -704 -0.14375
v -3552 -704 -0.14375
v -3584 -736 -0.14375
v -3616 -736 -0.14375
v -3616 -704 -0.14375
v -3584 -704 -0.14375
v -4320 -736 -0.14375
v -4352 -736 -0.14375
v -4352 -704 -0.14375
v -4320 -704 -0.14375
v -4352 -736 -0.14375
v -4384 -736 -0.14375
v -4384 -704 -0.14375
v -4352 -704 -0.14375
v -3648 -768 -0.15
v -3680 -768 -0.15
v -3680 -736 -0.15
v -3648 -736 -0.15
v -3680 -768 -0.15
v -3712 -768 -0.15
v -3712 -736 -0.15
v -3680 -736 -0.15
v -3968 -768 -0.15
v -4000 -768 -0.15
v -4000 -736 -0.15
v -3968 -736 -0.15
v -4224 -768 -0.15
v -4256 -768 -0.15
v -4256 -736 -0.15
v -4224 -736 -0.15
v -4256 -768 -0.15
v -4288 -768 -0.15
v -4288 -736 -0.15
v -4256 -736 -0.15
v -4416 -768 -0.15
v -4448 -768 -0.15
v -4448 -736 -0.15
v -4416 -736 -0.15
v -4704 -768 -0.15
v -4736 -768 -0.15
v -4736 -736 -0.15
v -4704 -736 -0.15
v -4736 -768 -0.15
v -4768 -768 -0.15
v -4768 -736 -0.15
v -4736 -736 -0.15
v -4768 -768 -0.15
v -4800 -768 -0.15
v -4800 -736 -0.15
v -4768 -736 -0.15
v -4800 -768 -0.15
v -4832 -768 -0.15
v -4832 -736 -0.15
v -4800 -736 -0.15
v -4832 -768 -0.15
v -4864 -768 -0.15
v -4864 -736 -0.15
v -4832 -736 -0.15
v -5216 -768 -0.15
v -5248 -768 -0.15
v -5248 -736 -0.15
v -5216 -736 -0.15
v -5248 -768 -0.15
v -5280 -768 -0.15
v -5280 -736 -0.15
v -5248 -736 -0.15
v -5280 -768 -0.15
v -5312 -768 -0.15
v -5312 -736 -0.15
v -5280 -736 -0.15
v -5312 -768 -0.15
v -5344 -768 -0.15
v -5344 -736 -0.15
v -5312 -736 -0.15
v -5344 -768 -0.15
v -5376 -768 -0.15
v -5376 -736 -0.15
v -5344 -736 -0.15
v -5376 -768 -0.15
v -5408 -768 -0.15
v -5408 -736 -0.15
v -5376 -736 -0.15
v -4032 -800 -0.15625
v -4064 -800 -0.15625
v -4064 -768 -0.15625
v -4032 -768 -0.15625
v -4064 -800 -0.15625
v -4096 -800 -0.15625
v -4096 -768 -0.15625
v -4064 -768 -0.15625
v -4096 -800 -0.15625
v -4128 -800 -0.15625
v -4128 -768 -0.15625
v -4096 -768 -0.15625
v -4128 -800 -0.15625
v -4160 -800 -0.15625
v -4160 -768 -0.15625
v -4128 -768 -0.15625
v -4160 -800 -0.15625
v -4192 -800 -0.15625
v -4192 -768 -0.15625
v -4160 -768 -0.15625
v -4224 -800 -0.15625
v -4256 -800 -0.15625
v -4256 -768 -0.15625
v -4224 -768 -0.15625
v -4480 -800 -0.15625
v -4512 -800 -0.15625
v -4512 -768 -0.15625
v -4480 -768 -0.15625
v -4512 -800 -0.15625
v -4544 -800 -0.15625
v -4544 -768 -0.15625
v -4512 -768 -0.15625
v -4544 -800 -0.15625
v -4576 -800 -0.15625
v -4576 -768 -0.15625
v -4544 -768 -0.15625
v -4576 -800 -0.15625
v -4608 -800 -0.15625
v -4608 -768 -0.15625
v -4576 -768 -0.15625
v -4608 -800 -0.15625
v -4640 -800 -0.15625
v -4640 -768 -0.15625
v -4608 -768 -0.15625
v -4640 -800 -0.15625
v -4672 -800 -0.15625
v -4672 -768 -0.15625
v -4640 -768 -0.15625
v -4704 -800 -0.15625
v -4736 -800 -0.15625
v -4736 -768 -0.15625
v -4704 -768 -0.15625
v -4736 -800 -0.15625
v -4768 -800 -0.15625
v -4768 -768 -0.15625
v -4736 -768 -0.15625
v -4896 -800 -0.15625
v -4928 -800 -0.15625
v -4928 -768 -0.15625
v -4896 -768 -0.15625
v -4928 -800 -0.15625
v -4960 -800 -0.15625
v -4960 -768 -0.15625
v -4928 -768 -0.15625
v -4960 -800 -0.15625
v -4992 -800 -0.15625
v -4992 -768 -0.15625
v -4960 -768 -0.15625
v -4992 -800 -0.15625
v -5024 -800 -0.15625
v -5024 -768 -0.15625
v -4992 -768 -0.15625
v -5024 -800 -0.15625
v -5056 -800 -0.15625
v -5056 -768 -0.15625
v -5024 -768 -0.15625
v -5056 -800 -0.15625
v -5088 -800 -0.15625
v -5088 -768 -0.15625
v -5056 -768 -0.15625
v -5088 -800 -0.15625
v -5120 -800 -0.15625
v -5120 -768 -0.15625
v -5088 -768 -0.15625
v -5120 -800 -0.15625
v -5152 -800 -0.15625
v -5152 -768 -0.15625
v -5120 -768 -0.15625
v -5152 -800 -0.15625
v -5184 -800 -0.15625
v -5184 -768 -0.15625
v -5152 -768 -0.15625
v -5440 -800 -0.15625
v -5472 -800 -0.15625
v -5472 -768 -0.15625
v -5440 -768 -0.15625
v -5472 -800 -0.15625
v -5504 -800 -0.15625
v -5504 -768 -0.15625
v -5472 -768 -0.15625
v -5504 -800 -0.15625
v -5536 -800 -0.15625
v -5536 -768 -0.15625
v -5504 -768 -0.15625
v -5536 -800 -0.15625
v -5568 -800 -0.15625
v -5568 -768 -0.15625
v -5536 -768 -0.15625
v -5568 -800 -0.15625
v -5600 -800 -0.15625
v -5600 -768 -0.15625
v -5568 -768 -0.15625
v -5600 -800 -0.15625
v -5632 -800 -0.15625
v -5632 -768 -0.15625
v -5600 -768 -0.15625
v -6016 -800 -0.15625
v -6048 -800 -0.15625
v -6048 -768 -0.15625
v -6016 -768 -0.15625

# Texture cooridinates (Count = 4)
vt 0 0
vt 1 0
vt 1 1
vt 0 1

# Normal
vn 0 0 -1

# Mesh description
g untitled_mesh_0059

# Faces
f 1/1/1 2/2/1 3/3/1 4/4/1
f 5/1/1 6/2/1 7/3/1 8/4/1
f 9/1/1 10/2/1 11/3/1 12/4/1
f 13/1/1 14/2/1 15/3/1 16/4/1
f 17/1/1 18/2/1 19/3/1 20/4/1
f 21/1/1 22/2/1 23/3/1 24/4/1
f 25/1/1 26/2/1 27/3/1 28/4/1
f 29/1/1 30/2/1 31/3/1 32/4/1
f 33/1/1 34/2/1 35/3/1 36/4/1
f 37/1/1 38/2/1 39/3/1 40/4/1
f 41/1/1 42/2/1 43/3/1 44/4/1
f 45/1/1 46/2/1 47/3/1 48/4/1
f 49/1/1 50/2/1 51/3/1 52/4/1
f 53/1/1 54/2/1 55/3/1 56/4/1
f 57/1/1 58/2/1 59/3/1 60/4/1
f 61/1/1 62/2/1 63/3/1 64/4/1
f 65/1/1 66/2/1 67/3/1 68/4/1
f 69/1/1 70/2/1 71/3/1 72/4/1
f 73/1/1 74/2/1 75/3/1 76/4/1
f 77/1/1 78/2/1 79/3/1 80/4/1
f 81/1/1 82/2/1 83/3/1 84/4/1
f 85/1/1 86/2/1 87/3/1 88/4/1
f 89/1/1 90/2/1 91/3/1 92/4/1
f 93/1/1 94/2/1 95/3/1 96/4/1
f 97/1/1 98/2/1 99/3/1 100/4/1
f 101/1/1 102/2/1 103/3/1 104/4/1
f 105/1/1 106/2/1 107/3/1 108/4/1
f 109/1/1 110/2/1 111/3/1 112/4/1
f 113/1/1 114/2/1 115/3/1 116/4/1
f 117/1/1 118/2/1 119/3/1 120/4/1
f 121/1/1 122/2/1 123/3/1 124/4/1
f 125/1/1 126/2/1 127/3/1 128/4/1
f 129/1/1 130/2/1 131/3/1 132/4/1
f 133/1/1 134/2/1 135/3/1 136/4/1
f 137/1/1 138/2/1 139/3/1 140/4/1
f 141/1/1 142/2/1 143/3/1 144/4/1
f 145/1/1 146/2/1 147/3/1 148/4/1
f 149/1/1 150/2/1 151/3/1 152/4/1
f 153/1/1 154/2/1 155/3/1 156/4/1
f 157/1/1 158/2/1 159/3/1 160/4/1
f 161/1/1 162/2/1 163/3/1 164/4/1
f 165/1/1 166/2/1 167/3/1 168/4/1
f 169/1/1 170/2/1 171/3/1 172/4/1
f 173/1/1 174/2/1 175/3/1 176/4/1
f 177/1/1 178/2/1 179/3/1 180/4/1
f 181/1/1 182/2/1 183/3/1 184/4/1
f 185/1/1 186/2/1 187/3/1 188/4/1
f 189/1/1 190/2/1 191/3/1 192/4/1
f 193/1/1 194/2/1 195/3/1 196/4/1
f 197/1/1 198/2/1 199/3/1 200/4/1
f 201/1/1 202/2/1 203/3/1 204/4/1
f 205/1/1 206/2/1 207/3/1 208/4/1
f 209/1/1 210/2/1 211/3/1 212/4/1
f 213/1/1 214/2/1 215/3/1 216/4/1
f 217/1/1 218/2/1 219/3/1 220/4/1
f 221/1/1 222/2/1 223/3/1 224/4/1
f 225/1/1 226/2/1 227/3/1 228/4/1
f 229/1/1 230/2/1 231/3/1 232/4/1
f 233/1/1 234/2/1 235/3/1 236/4/1
f 237/1/1 238/2/1 239/3/1 240/4/1
f 241/1/1 242/2/1 243/3/1 244/4/1
f 245/1/1 246/2/1 247/3/1 248/4/1
f 249/1/1 250/2/1 251/3/1 252/4/1
f 253/1/1 254/2/1 255/3/1 256/4/1
f 257/1/1 258/2/1 259/3/1 260/4/1
f 261/1/1 262/2/1 263/3/1 264/4/1
f 265/1/1 266/2/1 267/3/1 268/4/1
f 269/1/1 270/2/1 271/3/1 272/4/1
f 273/1/1 274/2/1 275/3/1 276/4/1
f 277/1/1 278/2/1 279/3/1 280/4/1
f 281/1/1 282/2/1 283/3/1 284/4/1
f 285/1/1 286/2/1 287/3/1 288/4/1
f 289/1/1 290/2/1 291/3/1 292/4/1

