# Tiled2Unity generated file. Do not modify by hand.
# Wavefront file for 'untitled_mesh_0093.obj'

# Vertices (Count = 12)
v -6368 -1056 -0.20625
v -6400 -1056 -0.20625
v -6400 -1024 -0.20625
v -6368 -1024 -0.20625
v -6336 -1088 -0.2125
v -6368 -1088 -0.2125
v -6368 -1056 -0.2125
v -6336 -1056 -0.2125
v -6304 -1120 -0.21875
v -6336 -1120 -0.21875
v -6336 -1088 -0.21875
v -6304 -1088 -0.21875

# Texture cooridinates (Count = 4)
vt 0 0
vt 1 0
vt 1 1
vt 0 1

# Normal
vn 0 0 -1

# Mesh description
g untitled_mesh_0093

# Faces
f 1/1/1 2/2/1 3/3/1 4/4/1
f 5/1/1 6/2/1 7/3/1 8/4/1
f 9/1/1 10/2/1 11/3/1 12/4/1

