# Tiled2Unity generated file. Do not modify by hand.
# Wavefront file for 'untitled_mesh_0017.obj'

# Vertices (Count = 28)
v -5632 -576 -0.1125
v -5664 -576 -0.1125
v -5664 -544 -0.1125
v -5632 -544 -0.1125
v -5632 -608 -0.11875
v -5664 -608 -0.11875
v -5664 -576 -0.11875
v -5632 -576 -0.11875
v -6560 -896 -0.175
v -6592 -896 -0.175
v -6592 -864 -0.175
v -6560 -864 -0.175
v -6528 -928 -0.18125
v -6560 -928 -0.18125
v -6560 -896 -0.18125
v -6528 -896 -0.18125
v -6560 -928 -0.18125
v -6592 -928 -0.18125
v -6592 -896 -0.18125
v -6560 -896 -0.18125
v -6496 -960 -0.1875
v -6528 -960 -0.1875
v -6528 -928 -0.1875
v -6496 -928 -0.1875
v -6528 -960 -0.1875
v -6560 -960 -0.1875
v -6560 -928 -0.1875
v -6528 -928 -0.1875

# Texture cooridinates (Count = 4)
vt 0 0
vt 1 0
vt 1 1
vt 0 1

# Normal
vn 0 0 -1

# Mesh description
g untitled_mesh_0017

# Faces
f 1/1/1 2/2/1 3/3/1 4/4/1
f 5/1/1 6/2/1 7/3/1 8/4/1
f 9/1/1 10/2/1 11/3/1 12/4/1
f 13/1/1 14/2/1 15/3/1 16/4/1
f 17/1/1 18/2/1 19/3/1 20/4/1
f 21/1/1 22/2/1 23/3/1 24/4/1
f 25/1/1 26/2/1 27/3/1 28/4/1

