# Tiled2Unity generated file. Do not modify by hand.
# Wavefront file for 'untitled_mesh_0062.obj'

# Vertices (Count = 24)
v -2912 -736 -0.14375
v -2944 -736 -0.14375
v -2944 -704 -0.14375
v -2912 -704 -0.14375
v -3744 -768 -0.15
v -3776 -768 -0.15
v -3776 -736 -0.15
v -3744 -736 -0.15
v -3168 -800 -0.15625
v -3200 -800 -0.15625
v -3200 -768 -0.15625
v -3168 -768 -0.15625
v -3488 -800 -0.15625
v -3520 -800 -0.15625
v -3520 -768 -0.15625
v -3488 -768 -0.15625
v -4768 -832 -0.1625
v -4800 -832 -0.1625
v -4800 -800 -0.1625
v -4768 -800 -0.1625
v -5472 -832 -0.1625
v -5504 -832 -0.1625
v -5504 -800 -0.1625
v -5472 -800 -0.1625

# Texture cooridinates (Count = 4)
vt 0 0
vt 1 0
vt 1 1
vt 0 1

# Normal
vn 0 0 -1

# Mesh description
g untitled_mesh_0062

# Faces
f 1/1/1 2/2/1 3/3/1 4/4/1
f 5/1/1 6/2/1 7/3/1 8/4/1
f 9/1/1 10/2/1 11/3/1 12/4/1
f 13/1/1 14/2/1 15/3/1 16/4/1
f 17/1/1 18/2/1 19/3/1 20/4/1
f 21/1/1 22/2/1 23/3/1 24/4/1

