# Tiled2Unity generated file. Do not modify by hand.
# Wavefront file for 'untitled_mesh_0011.obj'

# Vertices (Count = 284)
v -5536 -384 -0.075
v -5568 -384 -0.075
v -5568 -352 -0.075
v -5536 -352 -0.075
v -2528 -416 -0.08125
v -2560 -416 -0.08125
v -2560 -384 -0.08125
v -2528 -384 -0.08125
v -5536 -416 -0.08125
v -5568 -416 -0.08125
v -5568 -384 -0.08125
v -5536 -384 -0.08125
v -3616 -448 -0.0875
v -3648 -448 -0.0875
v -3648 -416 -0.0875
v -3616 -416 -0.0875
v -5536 -448 -0.0875
v -5568 -448 -0.0875
v -5568 -416 -0.0875
v -5536 -416 -0.0875
v -2496 -480 -0.09375
v -2528 -480 -0.09375
v -2528 -448 -0.09375
v -2496 -448 -0.09375
v -3616 -480 -0.09375
v -3648 -480 -0.09375
v -3648 -448 -0.09375
v -3616 -448 -0.09375
v -5536 -480 -0.09375
v -5568 -480 -0.09375
v -5568 -448 -0.09375
v -5536 -448 -0.09375
v -5536 -512 -0.1
v -5568 -512 -0.1
v -5568 -480 -0.1
v -5536 -480 -0.1
v -2816 -576 -0.1125
v -2848 -576 -0.1125
v -2848 -544 -0.1125
v -2816 -544 -0.1125
v -3680 -576 -0.1125
v -3712 -576 -0.1125
v -3712 -544 -0.1125
v -3680 -544 -0.1125
v -4320 -608 -0.11875
v -4352 -608 -0.11875
v -4352 -576 -0.11875
v -4320 -576 -0.11875
v -5472 -608 -0.11875
v -5504 -608 -0.11875
v -5504 -576 -0.11875
v -5472 -576 -0.11875
v -4576 -640 -0.125
v -4608 -640 -0.125
v -4608 -608 -0.125
v -4576 -608 -0.125
v -5472 -640 -0.125
v -5504 -640 -0.125
v -5504 -608 -0.125
v -5472 -608 -0.125
v -3136 -704 -0.1375
v -3168 -704 -0.1375
v -3168 -672 -0.1375
v -3136 -672 -0.1375
v -4192 -704 -0.1375
v -4224 -704 -0.1375
v -4224 -672 -0.1375
v -4192 -672 -0.1375
v -3136 -736 -0.14375
v -3168 -736 -0.14375
v -3168 -704 -0.14375
v -3136 -704 -0.14375
v -2208 -768 -0.15
v -2240 -768 -0.15
v -2240 -736 -0.15
v -2208 -736 -0.15
v -3136 -768 -0.15
v -3168 -768 -0.15
v -3168 -736 -0.15
v -3136 -736 -0.15
v -3136 -800 -0.15625
v -3168 -800 -0.15625
v -3168 -768 -0.15625
v -3136 -768 -0.15625
v -2176 -832 -0.1625
v -2208 -832 -0.1625
v -2208 -800 -0.1625
v -2176 -800 -0.1625
v -2176 -864 -0.16875
v -2208 -864 -0.16875
v -2208 -832 -0.16875
v -2176 -832 -0.16875
v -2112 -960 -0.1875
v -2144 -960 -0.1875
v -2144 -928 -0.1875
v -2112 -928 -0.1875
v -2112 -992 -0.19375
v -2144 -992 -0.19375
v -2144 -960 -0.19375
v -2112 -960 -0.19375
v -2016 -1056 -0.20625
v -2048 -1056 -0.20625
v -2048 -1024 -0.20625
v -2016 -1024 -0.20625
v -2016 -1088 -0.2125
v -2048 -1088 -0.2125
v -2048 -1056 -0.2125
v -2016 -1056 -0.2125
v -2016 -1120 -0.21875
v -2048 -1120 -0.21875
v -2048 -1088 -0.21875
v -2016 -1088 -0.21875
v -2016 -1152 -0.225
v -2048 -1152 -0.225
v -2048 -1120 -0.225
v -2016 -1120 -0.225
v -2016 -1184 -0.23125
v -2048 -1184 -0.23125
v -2048 -1152 -0.23125
v -2016 -1152 -0.23125
v -2016 -1216 -0.2375
v -2048 -1216 -0.2375
v -2048 -1184 -0.2375
v -2016 -1184 -0.2375
v -2016 -1248 -0.24375
v -2048 -1248 -0.24375
v -2048 -1216 -0.24375
v -2016 -1216 -0.24375
v -2016 -1280 -0.25
v -2048 -1280 -0.25
v -2048 -1248 -0.25
v -2016 -1248 -0.25
v -1856 -1472 -0.2875
v -1888 -1472 -0.2875
v -1888 -1440 -0.2875
v -1856 -1440 -0.2875
v -1856 -1504 -0.29375
v -1888 -1504 -0.29375
v -1888 -1472 -0.29375
v -1856 -1472 -0.29375
v -1760 -1632 -0.31875
v -1792 -1632 -0.31875
v -1792 -1600 -0.31875
v -1760 -1600 -0.31875
v -1760 -1664 -0.325
v -1792 -1664 -0.325
v -1792 -1632 -0.325
v -1760 -1632 -0.325
v -1728 -1728 -0.3375
v -1760 -1728 -0.3375
v -1760 -1696 -0.3375
v -1728 -1696 -0.3375
v -1664 -1824 -0.35625
v -1696 -1824 -0.35625
v -1696 -1792 -0.35625
v -1664 -1792 -0.35625
v -1568 -1952 -0.38125
v -1600 -1952 -0.38125
v -1600 -1920 -0.38125
v -1568 -1920 -0.38125
v -1536 -2016 -0.39375
v -1568 -2016 -0.39375
v -1568 -1984 -0.39375
v -1536 -1984 -0.39375
v -1504 -2080 -0.40625
v -1536 -2080 -0.40625
v -1536 -2048 -0.40625
v -1504 -2048 -0.40625
v -1440 -2176 -0.425
v -1472 -2176 -0.425
v -1472 -2144 -0.425
v -1440 -2144 -0.425
v -1376 -2272 -0.44375
v -1408 -2272 -0.44375
v -1408 -2240 -0.44375
v -1376 -2240 -0.44375
v -1344 -2336 -0.45625
v -1376 -2336 -0.45625
v -1376 -2304 -0.45625
v -1344 -2304 -0.45625
v -1280 -2432 -0.475
v -1312 -2432 -0.475
v -1312 -2400 -0.475
v -1280 -2400 -0.475
v -1216 -2528 -0.49375
v -1248 -2528 -0.49375
v -1248 -2496 -0.49375
v -1216 -2496 -0.49375
v -1088 -2688 -0.525
v -1120 -2688 -0.525
v -1120 -2656 -0.525
v -1088 -2656 -0.525
v -1088 -2720 -0.53125
v -1120 -2720 -0.53125
v -1120 -2688 -0.53125
v -1088 -2688 -0.53125
v -1056 -2784 -0.54375
v -1088 -2784 -0.54375
v -1088 -2752 -0.54375
v -1056 -2752 -0.54375
v -992 -2880 -0.5625
v -1024 -2880 -0.5625
v -1024 -2848 -0.5625
v -992 -2848 -0.5625
v -960 -2944 -0.575
v -992 -2944 -0.575
v -992 -2912 -0.575
v -960 -2912 -0.575
v -928 -3008 -0.5875
v -960 -3008 -0.5875
v -960 -2976 -0.5875
v -928 -2976 -0.5875
v -864 -3104 -0.60625
v -896 -3104 -0.60625
v -896 -3072 -0.60625
v -864 -3072 -0.60625
v -864 -3136 -0.6125
v -896 -3136 -0.6125
v -896 -3104 -0.6125
v -864 -3104 -0.6125
v -800 -3232 -0.63125
v -832 -3232 -0.63125
v -832 -3200 -0.63125
v -800 -3200 -0.63125
v -768 -3296 -0.64375
v -800 -3296 -0.64375
v -800 -3264 -0.64375
v -768 -3264 -0.64375
v -704 -3392 -0.6625
v -736 -3392 -0.6625
v -736 -3360 -0.6625
v -704 -3360 -0.6625
v -672 -3456 -0.675
v -704 -3456 -0.675
v -704 -3424 -0.675
v -672 -3424 -0.675
v -672 -3488 -0.68125
v -704 -3488 -0.68125
v -704 -3456 -0.68125
v -672 -3456 -0.68125
v -608 -3584 -0.7
v -640 -3584 -0.7
v -640 -3552 -0.7
v -608 -3552 -0.7
v -576 -3648 -0.7125
v -608 -3648 -0.7125
v -608 -3616 -0.7125
v -576 -3616 -0.7125
v -576 -3680 -0.71875
v -608 -3680 -0.71875
v -608 -3648 -0.71875
v -576 -3648 -0.71875
v -512 -3776 -0.7375
v -544 -3776 -0.7375
v -544 -3744 -0.7375
v -512 -3744 -0.7375
v -448 -3904 -0.7625
v -480 -3904 -0.7625
v -480 -3872 -0.7625
v -448 -3872 -0.7625
v -384 -4000 -0.78125
v -416 -4000 -0.78125
v -416 -3968 -0.78125
v -384 -3968 -0.78125
v -320 -4096 -0.8
v -352 -4096 -0.8
v -352 -4064 -0.8
v -320 -4064 -0.8
v -256 -4192 -0.81875
v -288 -4192 -0.81875
v -288 -4160 -0.81875
v -256 -4160 -0.81875
v -256 -4224 -0.825
v -288 -4224 -0.825
v -288 -4192 -0.825
v -256 -4192 -0.825
v -192 -4320 -0.84375
v -224 -4320 -0.84375
v -224 -4288 -0.84375
v -192 -4288 -0.84375
v -160 -4384 -0.85625
v -192 -4384 -0.85625
v -192 -4352 -0.85625
v -160 -4352 -0.85625

# Texture cooridinates (Count = 4)
vt 0 0
vt 1 0
vt 1 1
vt 0 1

# Normal
vn 0 0 -1

# Mesh description
g untitled_mesh_0011

# Faces
f 1/1/1 2/2/1 3/3/1 4/4/1
f 5/1/1 6/2/1 7/3/1 8/4/1
f 9/1/1 10/2/1 11/3/1 12/4/1
f 13/1/1 14/2/1 15/3/1 16/4/1
f 17/1/1 18/2/1 19/3/1 20/4/1
f 21/1/1 22/2/1 23/3/1 24/4/1
f 25/1/1 26/2/1 27/3/1 28/4/1
f 29/1/1 30/2/1 31/3/1 32/4/1
f 33/1/1 34/2/1 35/3/1 36/4/1
f 37/1/1 38/2/1 39/3/1 40/4/1
f 41/1/1 42/2/1 43/3/1 44/4/1
f 45/1/1 46/2/1 47/3/1 48/4/1
f 49/1/1 50/2/1 51/3/1 52/4/1
f 53/1/1 54/2/1 55/3/1 56/4/1
f 57/1/1 58/2/1 59/3/1 60/4/1
f 61/1/1 62/2/1 63/3/1 64/4/1
f 65/1/1 66/2/1 67/3/1 68/4/1
f 69/1/1 70/2/1 71/3/1 72/4/1
f 73/1/1 74/2/1 75/3/1 76/4/1
f 77/1/1 78/2/1 79/3/1 80/4/1
f 81/1/1 82/2/1 83/3/1 84/4/1
f 85/1/1 86/2/1 87/3/1 88/4/1
f 89/1/1 90/2/1 91/3/1 92/4/1
f 93/1/1 94/2/1 95/3/1 96/4/1
f 97/1/1 98/2/1 99/3/1 100/4/1
f 101/1/1 102/2/1 103/3/1 104/4/1
f 105/1/1 106/2/1 107/3/1 108/4/1
f 109/1/1 110/2/1 111/3/1 112/4/1
f 113/1/1 114/2/1 115/3/1 116/4/1
f 117/1/1 118/2/1 119/3/1 120/4/1
f 121/1/1 122/2/1 123/3/1 124/4/1
f 125/1/1 126/2/1 127/3/1 128/4/1
f 129/1/1 130/2/1 131/3/1 132/4/1
f 133/1/1 134/2/1 135/3/1 136/4/1
f 137/1/1 138/2/1 139/3/1 140/4/1
f 141/1/1 142/2/1 143/3/1 144/4/1
f 145/1/1 146/2/1 147/3/1 148/4/1
f 149/1/1 150/2/1 151/3/1 152/4/1
f 153/1/1 154/2/1 155/3/1 156/4/1
f 157/1/1 158/2/1 159/3/1 160/4/1
f 161/1/1 162/2/1 163/3/1 164/4/1
f 165/1/1 166/2/1 167/3/1 168/4/1
f 169/1/1 170/2/1 171/3/1 172/4/1
f 173/1/1 174/2/1 175/3/1 176/4/1
f 177/1/1 178/2/1 179/3/1 180/4/1
f 181/1/1 182/2/1 183/3/1 184/4/1
f 185/1/1 186/2/1 187/3/1 188/4/1
f 189/1/1 190/2/1 191/3/1 192/4/1
f 193/1/1 194/2/1 195/3/1 196/4/1
f 197/1/1 198/2/1 199/3/1 200/4/1
f 201/1/1 202/2/1 203/3/1 204/4/1
f 205/1/1 206/2/1 207/3/1 208/4/1
f 209/1/1 210/2/1 211/3/1 212/4/1
f 213/1/1 214/2/1 215/3/1 216/4/1
f 217/1/1 218/2/1 219/3/1 220/4/1
f 221/1/1 222/2/1 223/3/1 224/4/1
f 225/1/1 226/2/1 227/3/1 228/4/1
f 229/1/1 230/2/1 231/3/1 232/4/1
f 233/1/1 234/2/1 235/3/1 236/4/1
f 237/1/1 238/2/1 239/3/1 240/4/1
f 241/1/1 242/2/1 243/3/1 244/4/1
f 245/1/1 246/2/1 247/3/1 248/4/1
f 249/1/1 250/2/1 251/3/1 252/4/1
f 253/1/1 254/2/1 255/3/1 256/4/1
f 257/1/1 258/2/1 259/3/1 260/4/1
f 261/1/1 262/2/1 263/3/1 264/4/1
f 265/1/1 266/2/1 267/3/1 268/4/1
f 269/1/1 270/2/1 271/3/1 272/4/1
f 273/1/1 274/2/1 275/3/1 276/4/1
f 277/1/1 278/2/1 279/3/1 280/4/1
f 281/1/1 282/2/1 283/3/1 284/4/1

