# Tiled2Unity generated file. Do not modify by hand.
# Wavefront file for 'untitled_mesh_0087.obj'

# Vertices (Count = 52)
v -4672 -960 -0.1875
v -4704 -960 -0.1875
v -4704 -928 -0.1875
v -4672 -928 -0.1875
v -4384 -992 -0.19375
v -4416 -992 -0.19375
v -4416 -960 -0.19375
v -4384 -960 -0.19375
v -5664 -992 -0.19375
v -5696 -992 -0.19375
v -5696 -960 -0.19375
v -5664 -960 -0.19375
v -3200 -1024 -0.2
v -3232 -1024 -0.2
v -3232 -992 -0.2
v -3200 -992 -0.2
v -4288 -1024 -0.2
v -4320 -1024 -0.2
v -4320 -992 -0.2
v -4288 -992 -0.2
v -5632 -1024 -0.2
v -5664 -1024 -0.2
v -5664 -992 -0.2
v -5632 -992 -0.2
v -5952 -1024 -0.2
v -5984 -1024 -0.2
v -5984 -992 -0.2
v -5952 -992 -0.2
v -3168 -1056 -0.20625
v -3200 -1056 -0.20625
v -3200 -1024 -0.20625
v -3168 -1024 -0.20625
v -4256 -1056 -0.20625
v -4288 -1056 -0.20625
v -4288 -1024 -0.20625
v -4256 -1024 -0.20625
v -5280 -1056 -0.20625
v -5312 -1056 -0.20625
v -5312 -1024 -0.20625
v -5280 -1024 -0.20625
v -5888 -1056 -0.20625
v -5920 -1056 -0.20625
v -5920 -1024 -0.20625
v -5888 -1024 -0.20625
v -5440 -1088 -0.2125
v -5472 -1088 -0.2125
v -5472 -1056 -0.2125
v -5440 -1056 -0.2125
v -5952 -1088 -0.2125
v -5984 -1088 -0.2125
v -5984 -1056 -0.2125
v -5952 -1056 -0.2125

# Texture cooridinates (Count = 4)
vt 0 0
vt 1 0
vt 1 1
vt 0 1

# Normal
vn 0 0 -1

# Mesh description
g untitled_mesh_0087

# Faces
f 1/1/1 2/2/1 3/3/1 4/4/1
f 5/1/1 6/2/1 7/3/1 8/4/1
f 9/1/1 10/2/1 11/3/1 12/4/1
f 13/1/1 14/2/1 15/3/1 16/4/1
f 17/1/1 18/2/1 19/3/1 20/4/1
f 21/1/1 22/2/1 23/3/1 24/4/1
f 25/1/1 26/2/1 27/3/1 28/4/1
f 29/1/1 30/2/1 31/3/1 32/4/1
f 33/1/1 34/2/1 35/3/1 36/4/1
f 37/1/1 38/2/1 39/3/1 40/4/1
f 41/1/1 42/2/1 43/3/1 44/4/1
f 45/1/1 46/2/1 47/3/1 48/4/1
f 49/1/1 50/2/1 51/3/1 52/4/1

