# Tiled2Unity generated file. Do not modify by hand.
# Wavefront file for 'untitled_mesh_0044.obj'

# Vertices (Count = 76)
v -2912 -480 -0.09375
v -2944 -480 -0.09375
v -2944 -448 -0.09375
v -2912 -448 -0.09375
v -3296 -480 -0.09375
v -3328 -480 -0.09375
v -3328 -448 -0.09375
v -3296 -448 -0.09375
v -4064 -480 -0.09375
v -4096 -480 -0.09375
v -4096 -448 -0.09375
v -4064 -448 -0.09375
v -3616 -512 -0.1
v -3648 -512 -0.1
v -3648 -480 -0.1
v -3616 -480 -0.1
v -4960 -512 -0.1
v -4992 -512 -0.1
v -4992 -480 -0.1
v -4960 -480 -0.1
v -2976 -544 -0.10625
v -3008 -544 -0.10625
v -3008 -512 -0.10625
v -2976 -512 -0.10625
v -3392 -544 -0.10625
v -3424 -544 -0.10625
v -3424 -512 -0.10625
v -3392 -512 -0.10625
v -3648 -544 -0.10625
v -3680 -544 -0.10625
v -3680 -512 -0.10625
v -3648 -512 -0.10625
v -3936 -544 -0.10625
v -3968 -544 -0.10625
v -3968 -512 -0.10625
v -3936 -512 -0.10625
v -4192 -544 -0.10625
v -4224 -544 -0.10625
v -4224 -512 -0.10625
v -4192 -512 -0.10625
v -5120 -544 -0.10625
v -5152 -544 -0.10625
v -5152 -512 -0.10625
v -5120 -512 -0.10625
v -3072 -608 -0.11875
v -3104 -608 -0.11875
v -3104 -576 -0.11875
v -3072 -576 -0.11875
v -3520 -608 -0.11875
v -3552 -608 -0.11875
v -3552 -576 -0.11875
v -3520 -576 -0.11875
v -4064 -608 -0.11875
v -4096 -608 -0.11875
v -4096 -576 -0.11875
v -4064 -576 -0.11875
v -5920 -608 -0.11875
v -5952 -608 -0.11875
v -5952 -576 -0.11875
v -5920 -576 -0.11875
v -4576 -672 -0.13125
v -4608 -672 -0.13125
v -4608 -640 -0.13125
v -4576 -640 -0.13125
v -6048 -672 -0.13125
v -6080 -672 -0.13125
v -6080 -640 -0.13125
v -6048 -640 -0.13125
v -6208 -768 -0.15
v -6240 -768 -0.15
v -6240 -736 -0.15
v -6208 -736 -0.15
v -6400 -800 -0.15625
v -6432 -800 -0.15625
v -6432 -768 -0.15625
v -6400 -768 -0.15625

# Texture cooridinates (Count = 4)
vt 0 0
vt 1 0
vt 1 1
vt 0 1

# Normal
vn 0 0 -1

# Mesh description
g untitled_mesh_0044

# Faces
f 1/1/1 2/2/1 3/3/1 4/4/1
f 5/1/1 6/2/1 7/3/1 8/4/1
f 9/1/1 10/2/1 11/3/1 12/4/1
f 13/1/1 14/2/1 15/3/1 16/4/1
f 17/1/1 18/2/1 19/3/1 20/4/1
f 21/1/1 22/2/1 23/3/1 24/4/1
f 25/1/1 26/2/1 27/3/1 28/4/1
f 29/1/1 30/2/1 31/3/1 32/4/1
f 33/1/1 34/2/1 35/3/1 36/4/1
f 37/1/1 38/2/1 39/3/1 40/4/1
f 41/1/1 42/2/1 43/3/1 44/4/1
f 45/1/1 46/2/1 47/3/1 48/4/1
f 49/1/1 50/2/1 51/3/1 52/4/1
f 53/1/1 54/2/1 55/3/1 56/4/1
f 57/1/1 58/2/1 59/3/1 60/4/1
f 61/1/1 62/2/1 63/3/1 64/4/1
f 65/1/1 66/2/1 67/3/1 68/4/1
f 69/1/1 70/2/1 71/3/1 72/4/1
f 73/1/1 74/2/1 75/3/1 76/4/1

