# Tiled2Unity generated file. Do not modify by hand.
# Wavefront file for 'untitled_mesh_0077.obj'

# Vertices (Count = 12)
v -5664 -736 -0.14375
v -5696 -736 -0.14375
v -5696 -704 -0.14375
v -5664 -704 -0.14375
v -5632 -768 -0.15
v -5664 -768 -0.15
v -5664 -736 -0.15
v -5632 -736 -0.15
v -6784 -1024 -0.2
v -6816 -1024 -0.2
v -6816 -992 -0.2
v -6784 -992 -0.2

# Texture cooridinates (Count = 4)
vt 0 0
vt 1 0
vt 1 1
vt 0 1

# Normal
vn 0 0 -1

# Mesh description
g untitled_mesh_0077

# Faces
f 1/1/1 2/2/1 3/3/1 4/4/1
f 5/1/1 6/2/1 7/3/1 8/4/1
f 9/1/1 10/2/1 11/3/1 12/4/1

