# Tiled2Unity generated file. Do not modify by hand.
# Wavefront file for 'untitled_mesh_0085.obj'

# Vertices (Count = 8)
v -5696 -960 -0.1201172
v -5984 -960 -0.1201172
v -5984 -583 -0.1201172
v -5696 -583 -0.1201172
v -3232 -992 -0.1263672
v -3520 -992 -0.1263672
v -3520 -615 -0.1263672
v -3232 -615 -0.1263672

# Texture cooridinates (Count = 4)
vt 0 0
vt 1 0
vt 1 1
vt 0 1

# Normal
vn 0 0 -1

# Mesh description
g untitled_mesh_0085

# Faces
f 1/1/1 2/2/1 3/3/1 4/4/1
f 5/1/1 6/2/1 7/3/1 8/4/1

