# Tiled2Unity generated file. Do not modify by hand.
# Wavefront file for 'untitled_mesh_0063.obj'

# Vertices (Count = 96)
v -2784 -768 -0.15
v -2816 -768 -0.15
v -2816 -736 -0.15
v -2784 -736 -0.15
v -2816 -768 -0.15
v -2848 -768 -0.15
v -2848 -736 -0.15
v -2816 -736 -0.15
v -2848 -768 -0.15
v -2880 -768 -0.15
v -2880 -736 -0.15
v -2848 -736 -0.15
v -2880 -768 -0.15
v -2912 -768 -0.15
v -2912 -736 -0.15
v -2880 -736 -0.15
v -2912 -768 -0.15
v -2944 -768 -0.15
v -2944 -736 -0.15
v -2912 -736 -0.15
v -2816 -800 -0.15625
v -2848 -800 -0.15625
v -2848 -768 -0.15625
v -2816 -768 -0.15625
v -2848 -800 -0.15625
v -2880 -800 -0.15625
v -2880 -768 -0.15625
v -2848 -768 -0.15625
v -2880 -800 -0.15625
v -2912 -800 -0.15625
v -2912 -768 -0.15625
v -2880 -768 -0.15625
v -3616 -800 -0.15625
v -3648 -800 -0.15625
v -3648 -768 -0.15625
v -3616 -768 -0.15625
v -3648 -800 -0.15625
v -3680 -800 -0.15625
v -3680 -768 -0.15625
v -3648 -768 -0.15625
v -3680 -800 -0.15625
v -3712 -800 -0.15625
v -3712 -768 -0.15625
v -3680 -768 -0.15625
v -3712 -800 -0.15625
v -3744 -800 -0.15625
v -3744 -768 -0.15625
v -3712 -768 -0.15625
v -3744 -800 -0.15625
v -3776 -800 -0.15625
v -3776 -768 -0.15625
v -3744 -768 -0.15625
v -3456 -832 -0.1625
v -3488 -832 -0.1625
v -3488 -800 -0.1625
v -3456 -800 -0.1625
v -3488 -832 -0.1625
v -3520 -832 -0.1625
v -3520 -800 -0.1625
v -3488 -800 -0.1625
v -3648 -832 -0.1625
v -3680 -832 -0.1625
v -3680 -800 -0.1625
v -3648 -800 -0.1625
v -3680 -832 -0.1625
v -3712 -832 -0.1625
v -3712 -800 -0.1625
v -3680 -800 -0.1625
v -4192 -864 -0.16875
v -4224 -864 -0.16875
v -4224 -832 -0.16875
v -4192 -832 -0.16875
v -4224 -864 -0.16875
v -4256 -864 -0.16875
v -4256 -832 -0.16875
v -4224 -832 -0.16875
v -4672 -864 -0.16875
v -4704 -864 -0.16875
v -4704 -832 -0.16875
v -4672 -832 -0.16875
v -4704 -864 -0.16875
v -4736 -864 -0.16875
v -4736 -832 -0.16875
v -4704 -832 -0.16875
v -4736 -864 -0.16875
v -4768 -864 -0.16875
v -4768 -832 -0.16875
v -4736 -832 -0.16875
v -5440 -864 -0.16875
v -5472 -864 -0.16875
v -5472 -832 -0.16875
v -5440 -832 -0.16875
v -5472 -864 -0.16875
v -5504 -864 -0.16875
v -5504 -832 -0.16875
v -5472 -832 -0.16875

# Texture cooridinates (Count = 4)
vt 0 0
vt 1 0
vt 1 1
vt 0 1

# Normal
vn 0 0 -1

# Mesh description
g untitled_mesh_0063

# Faces
f 1/1/1 2/2/1 3/3/1 4/4/1
f 5/1/1 6/2/1 7/3/1 8/4/1
f 9/1/1 10/2/1 11/3/1 12/4/1
f 13/1/1 14/2/1 15/3/1 16/4/1
f 17/1/1 18/2/1 19/3/1 20/4/1
f 21/1/1 22/2/1 23/3/1 24/4/1
f 25/1/1 26/2/1 27/3/1 28/4/1
f 29/1/1 30/2/1 31/3/1 32/4/1
f 33/1/1 34/2/1 35/3/1 36/4/1
f 37/1/1 38/2/1 39/3/1 40/4/1
f 41/1/1 42/2/1 43/3/1 44/4/1
f 45/1/1 46/2/1 47/3/1 48/4/1
f 49/1/1 50/2/1 51/3/1 52/4/1
f 53/1/1 54/2/1 55/3/1 56/4/1
f 57/1/1 58/2/1 59/3/1 60/4/1
f 61/1/1 62/2/1 63/3/1 64/4/1
f 65/1/1 66/2/1 67/3/1 68/4/1
f 69/1/1 70/2/1 71/3/1 72/4/1
f 73/1/1 74/2/1 75/3/1 76/4/1
f 77/1/1 78/2/1 79/3/1 80/4/1
f 81/1/1 82/2/1 83/3/1 84/4/1
f 85/1/1 86/2/1 87/3/1 88/4/1
f 89/1/1 90/2/1 91/3/1 92/4/1
f 93/1/1 94/2/1 95/3/1 96/4/1

