# Tiled2Unity generated file. Do not modify by hand.
# Wavefront file for 'untitled_mesh_0060.obj'

# Vertices (Count = 20)
v -2784 -736 -0.14375
v -2816 -736 -0.14375
v -2816 -704 -0.14375
v -2784 -704 -0.14375
v -3616 -768 -0.15
v -3648 -768 -0.15
v -3648 -736 -0.15
v -3616 -736 -0.15
v -3424 -800 -0.15625
v -3456 -800 -0.15625
v -3456 -768 -0.15625
v -3424 -768 -0.15625
v -4192 -832 -0.1625
v -4224 -832 -0.1625
v -4224 -800 -0.1625
v -4192 -800 -0.1625
v -4672 -832 -0.1625
v -4704 -832 -0.1625
v -4704 -800 -0.1625
v -4672 -800 -0.1625

# Texture cooridinates (Count = 4)
vt 0 0
vt 1 0
vt 1 1
vt 0 1

# Normal
vn 0 0 -1

# Mesh description
g untitled_mesh_0060

# Faces
f 1/1/1 2/2/1 3/3/1 4/4/1
f 5/1/1 6/2/1 7/3/1 8/4/1
f 9/1/1 10/2/1 11/3/1 12/4/1
f 13/1/1 14/2/1 15/3/1 16/4/1
f 17/1/1 18/2/1 19/3/1 20/4/1

